<svg class="svg-icon-lib" aria-hidden="true" style="display: none" xmlns:xlink="http://www.w3.org/1999/xlink" version="1.1" xmlns="http://www.w3.org/2000/svg">
<symbol id="logo-uva-large-en" viewBox="0 0 425 42" preserveAspectRatio="xMinYMin"><title>logo-UvA-large-en </title><path d="M55.519 4.033c0-2.237-1.361-2.237-2.919-2.237l-.14-.116V1.2c0-.311.198-.34.509-.34.736 0 2.55.143 3.881.143 1.414 0 2.857-.143 4.273-.143l.086.085v.735l-.141.116h-.338c-1.842 0-2.664.195-2.664 2.322v8.21c0 4.078.795 7.28 5.663 7.28 5.07 0 6.71-2.438 6.71-7.223V5.022c0-3.226 0-3.003-2.49-3.226l-.114-.228V1.03l.087-.17c.508 0 1.075.144 3.197.144 1.192 0 2.692-.143 3.599-.143l.112.17v.594l-.172.172c-2.062 0-2.802.113-2.802 1.527V13.43c0 5.186-3.028 7.816-8.182 7.816-4.106 0-8.155-1.441-8.155-6.172V4.033Z"/><path d="M76.447 8.447c0-.426-.02-.532-.106-.7-.189-.364-1.124-1.125-1.483-1.148l-1.126-.063c-.085 0-.107-.212-.107-.38 0-.11 0-.277.107-.277.659 0 1.166-.043 1.695-.043.978 0 2.527.085 2.908.129l6.43 7.764a48.73 48.73 0 0 0 3.46 3.821h.083V8.214c0-1.402-.509-1.615-1.19-1.634l-.91-.044c-.086 0-.13-.212-.13-.358 0-.132.064-.342.193-.342.466 0 1.57.107 2.61.107.955 0 1.974-.107 2.567-.107.107 0 .128.085.128.171v.402c0 .104-.045.127-.19.127h-.552c-1.463 0-1.463.744-1.463 2.547V21.37h-.511L77.401 8.278v9.74c0 1.822.257 2.032 2.08 2.1.084 0 .148.19.148.357 0 .171-.02.342-.084.342-.404 0-1.76-.107-2.65-.107-1.042 0-1.51.107-2.482.107-.13 0-.152-.149-.152-.424 0-.193.021-.276.278-.276.888 0 1.908-.21 1.908-1.295V8.447zm20.695 8.444c0 3.097.063 3.118 2.143 3.226l.107.15v.401c0 .127-.319.149-.51.149-.297 0-1.719-.107-2.588-.107-1.018 0-2.059.107-3.161.107-.084-.045-.105-.17-.105-.384.02-.273.063-.316.677-.316 1.465 0 1.528-.318 1.528-1.933V8.043c0-1.209-.36-1.507-2.142-1.507l-.063-.104-.042-.342c.02-.233.212-.255.339-.255.571 0 1.251.108 2.693.108 1.06 0 2.335-.108 3.182-.108l.106.152v.38l-.084.128-.573.04c-.848.064-1.507.152-1.507 1.127v9.23zm5.096-9.634c-.234-.57-1.08-.72-1.678-.72l-.126-.105v-.553l.234-.044c.891 0 2.186.107 2.654.107.974 0 1.928-.107 2.903-.107l.064.067-.064.594-.996.084c-.339.018-.72.147-.72.464 0 .17.106.447.19.638l2.44 6.369 1.381 3.156c.147.319.168.384.233.384.042 0 .103-.089.189-.337l3.035-8.045c.34-.91.594-1.698.572-1.952-.021-.36-.128-.55-.742-.61l-1.103-.11-.128-.065v-.655c.83 0 1.654.125 2.484.125.658 0 2.057-.125 2.206-.125l.169.085v.487l-.19.147-.66.044c-.425.018-.594.233-.889.976-2.016 4.857-2.504 6.387-4.116 10.482l-1.082 2.757c-.105.298-.147.317-.297.317-.193 0-.234-.063-.275-.148l-5.688-13.707zM118.837 8c0-1.378-1.04-1.528-2.271-1.528-.086 0-.086-.105-.086-.192v-.234c0-.188.362-.21 1.104-.21.85 0 1.804.107 2.696.107.846 0 1.697-.107 2.546-.107h4.476c.17 0 .19.193.19.424V8.85c0 .085-.042.169-.147.169-.17 0-.508.024-.531-.233l-.063-.656c-.13-1.357-1.063-1.593-2.25-1.593h-2.185c-1.19 0-1.57.257-1.57 1.87v3.838c0 .062.128.17.17.17l2.503-.085c1.272-.042 1.636-.447 1.953-1.571.042-.123.106-.169.337-.169.152 0 .259.022.259.129 0 .445-.128 1.42-.128 2.122 0 1.142.128 1.762.128 2.118 0 .13-.215.258-.342.258-.169 0-.319-.065-.36-.278-.106-.57-.106-.98-.211-1.272-.109-.317-.364-.467-1-.485l-3.012-.068c-.297 0-.297.11-.297.255v5.052c0 1.527 1.126 1.568 2.589 1.568h1.145c1.124 0 1.91-.02 2.442-.336.467-.28 1.123-1.574 1.354-2.102.278 0 .64.062.64.21 0 .067-.062.236-.107.34l-.594 2.143c-.17.574-.276.574-.553.574-2.29 0-4.54-.107-7.616-.107-.7 0-2.483.107-3.566.107-.063 0-.127-.215-.127-.342 0-.167.043-.358.127-.358 1.85-.085 2.357-.276 2.357-2.228V8zm15.899 4.65c.277.02.528.04.805.04 1.699 0 3.82-.593 3.82-3.097 0-1.87-1.274-3.08-3.14-3.08-1.443 0-1.485.344-1.485.978v5.158zm-1.91-4.522c0-1.06-.044-1.592-1.38-1.592h-.868c-.128 0-.147-.233-.147-.402 0-.105.062-.299.147-.299 1.228 0 2.483.067 3.712.067.974 0 1.93-.067 2.907-.067 2.164 0 4.286 1.444 4.286 3.672 0 1.93-1.762 3.225-3.416 3.48v.042c.827.193 1.696 1.742 1.91 2.08l2.332 3.566c.744 1.124 1.233 1.334 2.504 1.4l.128.125v.402c0 .193-.15.215-.233.215-.443 0-1.102-.063-1.422-.063-.508 0-1.019.063-1.528.063-.486 0-1.443-1.422-2.695-3.65-1.378-2.442-2.185-3.777-3.583-3.777-.172 0-.425 0-.744.04v5.204c0 .76 0 1.483 1.061 1.483.806 0 1.166 0 1.166.169 0 .403-.063.53-.381.53-1.102 0-2.016-.106-2.929-.106-.36 0-2.715.107-3.012.107-.128 0-.169-.277-.169-.446 0-.189.084-.232.511-.254 1.462-.067 1.843-.276 1.843-1.74V8.127zm15.476 4.964c-1.528-.911-2.145-1.762-2.145-3.415 0-2.65 2.166-4.136 5.028-4.136.808 0 1.953.277 2.673.593l.148 2.652v.106c0 .107-.21.15-.508.15-.277 0-.316-.128-.337-.341-.151-1.421-1.168-2.335-2.677-2.335-1.442 0-2.564 1.018-2.564 2.38 0 1.524.93 2.12 3.052 3.243 2.102 1.103 3.927 2.08 3.927 4.733 0 2.885-2.61 4.39-5.26 4.39-.872 0-2.315-.277-3.122-.612-.168-.089-.231-.361-.294-.826l-.256-1.998c0-.126.425-.126.55-.126.064 0 .128.041.17.188.489 1.615 1.59 2.548 3.291 2.548 1.484 0 2.905-1.294 2.905-2.736 0-1.382-.785-2.21-1.89-2.865l-2.691-1.593zm12.522 3.8c0 3.096.063 3.117 2.143 3.225l.108.15v.401c0 .127-.32.149-.513.149-.294 0-1.716-.107-2.587-.107-1.02 0-2.056.107-3.16.107-.086-.045-.106-.17-.106-.384.02-.273.062-.316.677-.316 1.467 0 1.529-.318 1.529-1.933V8.043c0-1.209-.36-1.507-2.144-1.507l-.062-.104-.043-.342c.021-.233.213-.255.34-.255.572 0 1.25.108 2.693.108 1.063 0 2.335-.108 3.186-.108l.105.152v.38l-.084.128-.577.04c-.847.064-1.505.152-1.505 1.127v9.23zm11.27 1.657c0 1.568 1.06 1.568 2.376 1.568l.129.106v.34c0 .253-.107.253-.45.253-.424 0-1.463-.105-2.947-.105-1.165 0-2.989.105-3.501.105-.043-.147-.085-.254-.085-.383 0-.063.022-.19.085-.232l.215-.084h.254c1.931 0 2.016-.657 2.016-2.42V7.641l-.063-.976h-2.844c-1.613 0-1.87 1.018-2.27 2.378-.044.126-.129.188-.256.188-.296 0-.491-.086-.491-.213 0-.36.257-2.331.257-4.009 0-.085.3-.085.593-.085.679.911.893.911 1.806.911h7.891c1.486 0 1.91-.445 2.441-1.102.147 0 .635 0 .635.191 0 .17-.423 1.91-.467 3.44 0 .231-.065.679-.168.679-.19 0-.68-.109-.68-.218l-.084-1.058c-.083-1.08-.594-1.102-1.462-1.102h-2.93V18.55zm13.064-4.478c0-.215-.02-.492-.254-.835l-4.787-6.473c-.128-.193-.32-.3-.813-.32l-.81-.045-.128-.063V5.78l.127-.064h.257c.363 0 2.65.106 3.053.106.536 0 1.392-.106 2.095-.106.47 0 .683 0 .683.13v.257c0 .21-.063.316-.127.316l-1.24.045c-.3 0-.492.126-.492.362 0 .086.127.3.344.575l3.054 4.255c.17.236.362.447.577.641.406-.387 2.288-2.972 3.206-4.316.342-.494.535-.9.535-1.069 0-.298-.173-.425-.794-.448l-1.068-.045c.024 0 0-.316 0-.404 0-.108.024-.235.13-.299.832.085 1.857.106 2.776.106.622 0 1.56-.106 1.837-.106l.13.085v.492l-.085.086-.791.04c-.684.045-1.538 1.496-1.945 2.052l-3.544 4.852v5.019c0 .449.019.836.063.963.17.51.725.793 1.517.793h.576l.192.084v.598l-.107.021h-.321c-.94 0-1.857-.11-2.8-.11-.958 0-1.944.11-2.902.11H183l-.17-.044v-.364c0-.125.042-.277.213-.295l1.003-.11c.62-.064 1.112-.277 1.112-1.344V14.07zm30.327-.662c0-3.564-2.436-7.19-6.253-7.19-3.924 0-5.812 3.075-5.812 6.656 0 3.629 2.205 7.382 6.15 7.382 3.903 0 5.915-3.2 5.915-6.848m-14.332.167c0-4.432 3.794-8.057 8.186-8.057 4.45 0 8.418 3.053 8.418 7.463 0 4.266-4.115 8.102-8.337 8.102-4.429 0-8.267-2.88-8.267-7.508m19.198-5.383c0-1.292-.21-1.57-1.46-1.57h-.361c-.38.024-.549-.042-.549-.171 0-.17 0-.531.235-.531h8.69c.72 0 1.443-.104 2.185-.104.126 0 .297.022.297.192l.086 2.393c0 .148.022.299.022.447 0 .085-.17.125-.384.125h-.317c-.044-.251-.085-.508-.147-.739l-.191-.658c-.232-.829-.848-.954-1.508-.954h-2.97c-1.57 0-1.718.485-1.718 2.036v3.732h3.142c1.821 0 2.267-.508 2.267-1.675.21-.047.425-.108.573-.108.085 0 .129.044.129.15 0 .166-.085.487-.085 2.035 0 .616.085 1.718.085 2.184 0 .191-.147.275-.383.275-.17 0-.233-.19-.319-.53-.147-.87-.571-1.633-2.374-1.633h-3.035v5.557c0 .827.111 1.273 1.192 1.358l1.101.085c.105 0 .146.129.146.273 0 .171 0 .425-.23.425-1.593 0-2.27-.104-3.267-.104-.87 0-2.438.104-3.009.104-.173 0-.173-.212-.173-.377 0-.13.022-.321.11-.321l.933-.063c1.12-.086 1.287-.34 1.287-1.59V8.193zm28.448 3.668-3.148-8.117h-.06l-2.692 8.117h5.9zm-6.274 1.109-1.247 4.028c-.229.74-.339 1.39-.339 1.847 0 .935 1.331 1.134 2.102 1.134.251 0 .311.168.311.54 0 .282-.032.399-.23.399-.65 0-2.723-.146-3.49-.146-.763 0-1.957.146-2.81.146-.566 0-.566-.089-.566-.457v-.314c0-.14.252-.197.935-.255 1.477-.14 1.678-.423 2.218-1.987l5.617-16.345c.565-.48 1.162-1.137 1.869-1.363l7.127 17.966c.48 1.192.993 1.787 2.64 1.787.31 0 .367.342.367.653 0 .315-.195.315-.537.315-.46 0-2.273-.146-3.38-.146-1.135 0-2.272.057-3.406.146-.424 0-.453-.089-.453-.485 0-.31.17-.454.569-.454.428 0 1.815-.087 1.815-.767 0-.227-.112-.682-.51-1.674l-1.817-4.568h-6.785zm29.821-7.097c.66 0 1.339.062 2.022.062.533 0 1.085-.062 1.617-.062.32 0 .383.083.383.15v.338c0 .149-.064.256-.151.256-.149 0-.38-.044-.638-.044-1.237 0-1.237.618-1.237 2.003 0 1.213.237 9.174.237 10.345 0 .594.299 1.278 1.214 1.278.851 0 .954.042.954.234 0 .256-.124.469-.188.469-1.13 0-2.021-.11-2.917-.11-.893 0-1.809.11-2.724.11-.15 0-.17-.086-.17-.213v-.214c0-.213.192-.276 1.17-.276.428 0 .809-.51.809-1.257 0-2.297-.083-7.258-.17-10.9-.086-.019-.064-.019-.064-.019-1.191 2.448-2.744 6.002-3.468 7.898l-2.006 5.258c-.016.062-.082.126-.19.126-.102 0-.19-.108-.253-.403a9.57 9.57 0 0 0-.534-1.555l-4.023-9.794c-.15-.362-.276-.617-.358-.617-.09 0-.09.425-.09.661 0 1.683-.253 8.11-.253 9.154 0 .915 0 1.448 1.874 1.448.127 0 .148.105.148.36 0 .085-.021.343-.107.343-.3 0-1.34-.11-2.49-.11-1.21 0-2.405.11-2.705.11-.063 0-.128-.066-.128-.173v-.318c0-.192.173-.212.428-.212 1.745 0 2-.533 2-2.386 0-1.043.358-8.877.358-9.643 0-1.128-.551-1.597-2.463-1.597-.066 0-.11-.104-.11-.234v-.275c0-.108.065-.19.174-.19.807 0 1.575.104 2.424.104.531 0 1.085-.105 1.619-.105.151 0 .3.341.402.617l4.6 11.005h.1l4.904-11.622zm7.699 7.279c-1.539-.916-2.156-1.77-2.156-3.425 0-2.664 2.17-4.152 5.045-4.152.81 0 1.96.274 2.685.595l.148 2.662v.105c0 .107-.214.148-.514.148-.276 0-.315-.126-.338-.338-.148-1.426-1.17-2.345-2.683-2.345-1.446 0-2.574 1.022-2.574 2.387 0 1.532.938 2.127 3.065 3.255 2.11 1.108 3.94 2.085 3.94 4.748 0 2.897-2.622 4.405-5.28 4.405-.873 0-2.323-.276-3.131-.617-.17-.085-.233-.361-.3-.83l-.254-2c0-.127.428-.127.554-.127.07 0 .13.04.17.19.49 1.617 1.6 2.554 3.301 2.554 1.492 0 2.915-1.299 2.915-2.744 0-1.385-.785-2.215-1.892-2.874l-2.701-1.597zm15.502 5.854c0 1.577 1.062 1.577 2.383 1.577l.13.105v.341c0 .257-.108.257-.45.257-.424 0-1.465-.108-2.956-.108-1.172 0-3.004.108-3.513.108-.045-.151-.085-.257-.085-.383 0-.066.022-.193.085-.236l.215-.084h.255c1.937 0 2.021-.662 2.021-2.427V8.065l-.063-.978h-2.852c-1.62 0-1.878 1.02-2.28 2.383-.04.129-.128.192-.254.192-.302 0-.488-.086-.488-.212 0-.363.252-2.342.252-4.025 0-.084.299-.084.598-.084.681.916.892.916 1.807.916h7.918c1.49 0 1.918-.448 2.45-1.108.152 0 .637 0 .637.192 0 .171-.425 1.915-.467 3.45 0 .231-.067.679-.17.679-.193 0-.68-.105-.68-.212l-.084-1.066c-.089-1.084-.597-1.105-1.471-1.105h-2.938v11.919zm8.936-10.964c0-1.381-1.045-1.533-2.278-1.533-.084 0-.084-.107-.084-.19v-.235c0-.192.362-.211 1.106-.211.849 0 1.809.105 2.705.105.85 0 1.701-.105 2.55-.105h4.496c.167 0 .19.19.19.424v2.598c0 .085-.045.17-.151.17-.17 0-.51.02-.532-.233l-.066-.662c-.126-1.362-1.062-1.597-2.252-1.597h-2.195c-1.19 0-1.574.256-1.574 1.873V12.3c0 .063.128.171.173.171l2.508-.085c1.276-.044 1.642-.446 1.96-1.577.041-.127.107-.171.343-.171.147 0 .25.025.25.13 0 .448-.124 1.427-.124 2.128 0 1.15.124 1.767.124 2.128 0 .129-.21.257-.339.257-.17 0-.318-.065-.361-.279-.107-.571-.107-.977-.21-1.274-.11-.32-.367-.47-1.004-.491l-3.022-.063c-.298 0-.298.105-.298.253v5.07c0 1.53 1.128 1.573 2.597 1.573h1.15c1.13 0 1.916-.022 2.448-.342.471-.275 1.128-1.572 1.36-2.105.28 0 .639.063.639.211 0 .065-.063.234-.105.341l-.596 2.15c-.17.577-.275.577-.554.577-2.299 0-4.556-.11-7.64-.11-.702 0-2.49.11-3.576.11-.066 0-.13-.213-.13-.343 0-.17.043-.36.13-.36 1.849-.087 2.362-.279 2.362-2.237v-9.92zm15.277 4.662c.276.022.533.045.808.045 1.7 0 3.832-.598 3.832-3.11 0-1.871-1.276-3.086-3.149-3.086-1.45 0-1.491.34-1.491.979v5.172zm-1.916-4.534c0-1.063-.044-1.597-1.386-1.597h-.874c-.125 0-.147-.232-.147-.403 0-.107.065-.297.147-.297 1.236 0 2.496.062 3.729.062.98 0 1.938-.062 2.915-.062 2.172 0 4.302 1.448 4.302 3.68 0 1.937-1.768 3.236-3.428 3.493v.041c.83.192 1.704 1.746 1.915 2.085l2.342 3.579c.743 1.13 1.233 1.342 2.513 1.405l.126.126v.407c0 .189-.149.213-.233.213-.45 0-1.11-.066-1.428-.066-.512 0-1.021.066-1.53.066-.492 0-1.45-1.428-2.705-3.662-1.384-2.45-2.195-3.791-3.6-3.791-.167 0-.425 0-.742.044v5.216c0 .765 0 1.49 1.066 1.49.804 0 1.17 0 1.17.167 0 .405-.062.536-.388.536-1.107 0-2.019-.109-2.936-.109-.36 0-2.72.109-3.021.109-.128 0-.17-.277-.17-.45 0-.19.083-.233.509-.254 1.468-.064 1.854-.277 1.854-1.747V8.17zm17.189 9.543c0 2.343 2.406 2.343 3.339 2.343 2.916 0 6.023-2.405 6.023-6.856 0-3.79-2.042-5.663-3.512-6.513-1.02-.447-2.363-.553-3.277-.553-1.743 0-2.573.126-2.573 1.49v10.09zm-1.92-9.495c0-.808-.167-1.638-.958-1.638-.254 0-.933.085-1.339.085-.087 0-.087-.319-.087-.425 0-.128 0-.192.364-.275 1.428-.3 4.83-.533 6.66-.533 1.174 0 2.28.106 3.324.38 2.893.79 5.597 3.366 5.597 7.282 0 5.278-4.409 7.665-8.453 7.665-2.022 0-3.087-.087-4.146-.087-1.067 0-2.13.063-3.196.087-.084 0-.105-.192-.105-.343 0-.149.105-.36.19-.36.683-.086 1.233-.128 1.62-.385.318-.213.529-.554.529-1.233V8.218zm22.05 5.893-2.365-6.088h-.043l-2.015 6.088h4.423zm-4.708.828-.933 3.024c-.173.552-.255 1.043-.255 1.384 0 .701 1 .852 1.576.852.188 0 .232.126.232.402 0 .214-.023.3-.17.3-.49 0-2.042-.108-2.619-.108-.575 0-1.468.109-2.106.109-.425 0-.425-.066-.425-.343v-.234c0-.106.192-.15.702-.191 1.106-.107 1.254-.32 1.66-1.49l4.213-12.261c.425-.36.874-.852 1.405-1.024l5.343 13.476c.365.893.748 1.34 1.981 1.34.236 0 .276.258.276.49 0 .237-.147.237-.401.237-.34 0-1.705-.11-2.535-.11-.853 0-1.705.044-2.557.11-.317 0-.338-.066-.338-.366 0-.232.127-.337.424-.337.32 0 1.364-.065 1.364-.577 0-.168-.085-.51-.384-1.255l-1.36-3.428h-5.093zm25.662-9.066c.661 0 1.343.062 2.023.062.53 0 1.087-.062 1.619-.062.318 0 .38.083.38.15v.338c0 .149-.062.256-.145.256-.15 0-.386-.044-.64-.044-1.233 0-1.233.618-1.233 2.003 0 1.213.232 9.174.232 10.345 0 .594.3 1.278 1.215 1.278.848 0 .958.042.958.234 0 .256-.128.469-.192.469-1.131 0-2.022-.11-2.918-.11-.893 0-1.808.11-2.726.11-.148 0-.169-.086-.169-.213v-.214c0-.213.191-.276 1.169-.276.427 0 .807-.51.807-1.257 0-2.297-.08-7.258-.165-10.9-.085-.019-.066-.019-.066-.019-1.193 2.448-2.746 6.002-3.468 7.898l-2 5.258a.2.2 0 0 1-.192.126c-.108 0-.191-.108-.257-.403a10.072 10.072 0 0 0-.533-1.555l-4.022-9.794c-.15-.362-.276-.617-.36-.617-.086 0-.086.425-.086.661 0 1.683-.259 8.11-.259 9.154 0 .915 0 1.448 1.874 1.448.13 0 .149.105.149.36 0 .085-.019.343-.107.343-.295 0-1.34-.11-2.49-.11-1.214 0-2.407.11-2.701.11-.064 0-.126-.066-.126-.173v-.318c0-.192.167-.212.42-.212 1.748 0 2.004-.533 2.004-2.386 0-1.043.362-8.877.362-9.643 0-1.128-.55-1.597-2.472-1.597-.06 0-.107-.104-.107-.234v-.275c0-.108.067-.19.173-.19.81 0 1.574.104 2.431.104.529 0 1.081-.105 1.614-.105.15 0 .298.341.406.617l4.596 11.005h.108l4.894-11.622zM0 42h42V0H0v42zM16.072 3.857 17.827 2.1 21 5.273 24.173 2.1l1.756 1.756-3.173 3.173 3.173 3.174-1.756 1.756L21 8.786l-3.173 3.173-1.756-1.756 3.173-3.174-3.172-3.172zm3.172 14.825-3.172-3.173 1.755-1.756L21 16.926l3.173-3.173 1.756 1.756-3.173 3.173 3.173 3.173-1.756 1.757L21 20.438l-3.173 3.173-1.756-1.756 3.173-3.173zm6.682 19.438-1.756 1.757-3.173-3.174-3.173 3.173-1.756-1.756 3.173-3.173-3.173-3.172 1.756-1.757 3.173 3.173 3.173-3.173 1.756 1.756-3.173 3.173 3.173 3.173zm1.228-9.036.005-3.825-1.723 1.617s-1.003 1.031-3.276 1.616c-2.27.582-3.994.477-5.027.268-1.032-.206-1.961-.482-2.547-.76-.586-.276-1.618-.794-2.546-2.242-.549-.855-.549-2.997-.549-2.997l.042-3.993-.303-6.752s1.023.044 1.72.047c.86.005 1.6-.188 1.62-.076.034.209.057 9.402.057 9.402s.101 1.963.584 2.962c.844 1.754 4.612 1.9 4.612 1.9s.585.069 1.894-.033c1.307-.1 3.86-.478 4.685-2.025 0 0 .587-.654.798-4.372.221-3.894-.3-7.75-.3-7.75l3.651-.167s-.247 2.753-.253 7.92c-.005 5.166.473 8.196.473 8.196l-3.617 1.064z"/></symbol>
<symbol id="logo-uva-large-nl" viewBox="0 0 425 42" preserveAspectRatio="xMinYMin"><title>logo-UvA-large-nl </title><path d="M55.549 3.93c0-2.282-1.388-2.282-2.977-2.282l-.146-.118v-.49c0-.32.203-.349.521-.349.752 0 2.602.147 3.96.147 1.445 0 2.92-.147 4.366-.147l.086.09v.749l-.144.118h-.347c-1.88 0-2.719.201-2.719 2.37v8.385c0 4.162.81 7.425 5.783 7.425 5.174 0 6.85-2.483 6.85-7.37V4.943c0-3.295 0-3.066-2.543-3.295l-.116-.231v-.55l.088-.176c.518 0 1.097.147 3.266.147 1.214 0 2.746-.147 3.671-.147l.115.176v.605l-.174.176c-2.109 0-2.86.116-2.86 1.56v10.32c0 5.289-3.094 7.977-8.354 7.977-4.193 0-8.326-1.473-8.326-6.299V3.93Z"/><path d="M76.915 8.438c0-.434-.022-.542-.11-.715-.194-.37-1.147-1.147-1.516-1.17l-1.148-.066c-.087 0-.106-.215-.106-.388 0-.11 0-.281.106-.281.672 0 1.192-.043 1.733-.043.998 0 2.579.084 2.968.13l6.564 7.925a48.938 48.938 0 0 0 3.532 3.9h.085V8.199c0-1.426-.52-1.646-1.214-1.666l-.93-.045c-.088 0-.131-.215-.131-.365 0-.132.065-.347.194-.347.479 0 1.604.107 2.665.107.974 0 2.015-.107 2.622-.107.106 0 .13.084.13.174v.409c0 .109-.045.13-.195.13h-.563c-1.493 0-1.493.76-1.493 2.6v12.54h-.523L77.89 8.266v9.943c0 1.86.259 2.078 2.122 2.144.087 0 .153.194.153.367s-.024.348-.087.348c-.412 0-1.8-.11-2.707-.11-1.065 0-1.54.11-2.536.11-.13 0-.151-.154-.151-.435 0-.195.022-.28.283-.28.907 0 1.948-.216 1.948-1.321V8.438zm21.127 8.62c0 3.163.065 3.185 2.187 3.294l.108.152v.409c0 .13-.323.154-.519.154-.303 0-1.755-.11-2.642-.11-1.041 0-2.102.11-3.228.11-.086-.045-.108-.175-.108-.39.022-.281.065-.325.693-.325 1.494 0 1.56-.325 1.56-1.972V8.026c0-1.235-.37-1.539-2.188-1.539l-.065-.105-.043-.35c.02-.237.216-.257.345-.257.588 0 1.28.106 2.752.106 1.083 0 2.384-.106 3.248-.106l.11.152v.386l-.087.131-.583.043c-.869.065-1.54.153-1.54 1.151v9.42zm5.371-9.834c-.238-.584-1.103-.736-1.71-.736l-.131-.106v-.564l.239-.043c.909 0 2.23.107 2.705.107.999 0 1.972-.107 2.97-.107l.063.063-.062.607-1.02.086c-.346.022-.736.151-.736.477 0 .173.109.455.194.65l2.492 6.5 1.408 3.227c.152.323.173.387.238.387.043 0 .108-.087.194-.346l3.098-8.208c.347-.933.607-1.733.585-1.994-.02-.366-.128-.561-.758-.627l-1.126-.109-.13-.064V5.75c.845 0 1.689.131 2.533.131.674 0 2.102-.131 2.253-.131l.175.087v.5l-.195.15-.673.043c-.432.022-.606.24-.91.999-2.058 4.96-2.556 6.517-4.201 10.7l-1.105 2.813c-.108.306-.15.325-.303.325-.196 0-.238-.064-.281-.15l-5.806-13.994zm16.775.758c0-1.406-1.063-1.56-2.317-1.56-.087 0-.087-.109-.087-.193v-.24c0-.194.367-.214 1.128-.214.866 0 1.84.106 2.749.106.868 0 1.732-.106 2.6-.106h4.57c.173 0 .195.193.195.431V8.85c0 .087-.043.174-.153.174-.172 0-.518.02-.54-.238l-.064-.673c-.132-1.386-1.084-1.625-2.298-1.625h-2.23c-1.212 0-1.603.261-1.603 1.906v3.922c0 .064.13.174.173.174l2.555-.086c1.3-.045 1.668-.455 1.994-1.606.043-.129.107-.174.345-.174.152 0 .262.026.262.132 0 .456-.13 1.452-.13 2.166 0 1.17.13 1.798.13 2.166 0 .13-.216.26-.348.26-.173 0-.324-.065-.367-.283-.108-.581-.108-.994-.218-1.297-.107-.325-.367-.477-1.016-.5l-3.077-.063c-.303 0-.303.106-.303.257v5.159c0 1.558 1.148 1.601 2.643 1.601h1.17c1.147 0 1.949-.023 2.49-.348.476-.28 1.148-1.6 1.386-2.142.282 0 .65.064.65.215 0 .066-.065.238-.107.347l-.609 2.188c-.172.586-.28.586-.561.586-2.34 0-4.637-.111-7.779-.111-.713 0-2.533.111-3.637.111-.065 0-.13-.217-.13-.348 0-.174.043-.367.13-.367 1.884-.088 2.404-.283 2.404-2.276V7.982zm15.857 4.744c.283.022.543.045.823.045 1.733 0 3.9-.608 3.9-3.164 0-1.904-1.3-3.14-3.206-3.14-1.472 0-1.517.345-1.517.995v5.264zm-1.949-4.614c0-1.081-.042-1.625-1.406-1.625h-.888c-.131 0-.153-.237-.153-.41 0-.109.064-.303.153-.303 1.255 0 2.533.064 3.788.064.998 0 1.972-.064 2.97-.064 2.208 0 4.373 1.474 4.373 3.746 0 1.97-1.798 3.292-3.485 3.553v.042c.842.195 1.732 1.777 1.947 2.122l2.383 3.641c.76 1.15 1.258 1.366 2.557 1.43l.13.129v.413c0 .192-.152.217-.239.217-.454 0-1.126-.067-1.45-.067-.52 0-1.043.067-1.56.067-.498 0-1.472-1.453-2.753-3.726-1.405-2.493-2.23-3.858-3.658-3.858-.174 0-.434 0-.76.045v5.308c0 .778 0 1.515 1.084 1.515.823 0 1.19 0 1.19.171 0 .412-.062.545-.388.545-1.126 0-2.057-.11-2.988-.11-.37 0-2.776.11-3.077.11-.131 0-.174-.282-.174-.457 0-.193.086-.237.521-.259 1.494-.065 1.883-.282 1.883-1.778V8.112zm15.703 5.07c-1.558-.933-2.185-1.8-2.185-3.486 0-2.71 2.21-4.225 5.131-4.225.823 0 1.993.28 2.73.606l.153 2.709v.106c0 .11-.219.151-.521.151-.283 0-.324-.129-.347-.344-.152-1.451-1.192-2.386-2.73-2.386-1.473 0-2.62 1.04-2.62 2.429 0 1.558.952 2.164 3.118 3.312 2.144 1.128 4.007 2.122 4.007 4.83 0 2.949-2.663 4.484-5.371 4.484-.889 0-2.361-.28-3.183-.628-.172-.086-.24-.368-.304-.844l-.259-2.036c0-.13.432-.13.563-.13.064 0 .129.042.173.195.497 1.645 1.624 2.598 3.357 2.598 1.517 0 2.967-1.321 2.967-2.792 0-1.41-.8-2.253-1.928-2.925l-2.75-1.624zm12.933 3.876c0 3.163.067 3.185 2.188 3.294l.11.152v.409c0 .13-.327.154-.52.154-.306 0-1.756-.11-2.645-.11-1.038 0-2.1.11-3.226.11-.086-.045-.107-.175-.107-.39.021-.281.064-.325.694-.325 1.493 0 1.557-.325 1.557-1.972V8.026c0-1.235-.368-1.539-2.187-1.539l-.064-.105-.044-.35c.022-.237.216-.257.346-.257.586 0 1.277.106 2.751.106 1.085 0 2.382-.106 3.25-.106l.109.152v.386l-.087.131-.588.043c-.865.065-1.537.153-1.537 1.151v9.42zm11.686 1.689c0 1.605 1.081 1.605 2.425 1.605l.131.106v.347c0 .262-.11.262-.454.262-.434 0-1.498-.11-3.012-.11-1.191 0-3.054.11-3.575.11-.042-.154-.085-.262-.085-.39 0-.067.022-.197.085-.24l.22-.085h.256c1.973 0 2.058-.674 2.058-2.47V7.614l-.063-.996H169.5c-1.649 0-1.904 1.04-2.318 2.425-.043.131-.129.195-.261.195-.3 0-.496-.086-.496-.215 0-.369.26-2.383.26-4.096 0-.085.303-.085.604-.085.695.933.912.933 1.842.933h8.059c1.514 0 1.947-.457 2.49-1.128.15 0 .65 0 .65.195 0 .174-.434 1.949-.476 3.51 0 .236-.064.691-.173.691-.195 0-.695-.106-.695-.215l-.085-1.085c-.088-1.103-.606-1.125-1.496-1.125h-2.988v12.129zm9.374-10.765c0-1.406-1.061-1.56-2.317-1.56-.088 0-.088-.109-.088-.193v-.24c0-.194.368-.214 1.129-.214.866 0 1.84.106 2.749.106.867 0 1.734-.106 2.601-.106h4.568c.174 0 .196.193.196.431V8.85c0 .087-.042.174-.154.174-.169 0-.518.02-.541-.238l-.063-.673c-.132-1.386-1.081-1.625-2.297-1.625h-2.23c-1.213 0-1.604.261-1.604 1.906v3.922c0 .064.131.174.173.174l2.556-.086c1.3-.045 1.668-.455 1.994-1.606.045-.129.108-.174.345-.174.152 0 .26.026.26.132 0 .456-.128 1.452-.128 2.166 0 1.17.127 1.798.127 2.166 0 .13-.214.26-.344.26-.174 0-.325-.065-.37-.283-.104-.581-.104-.994-.216-1.297-.109-.325-.368-.477-1.014-.5l-3.079-.063c-.304 0-.304.106-.304.257v5.159c0 1.558 1.149 1.601 2.643 1.601h1.168c1.149 0 1.952-.023 2.493-.348.48-.28 1.148-1.6 1.387-2.142.282 0 .65.064.65.215 0 .066-.063.238-.108.347l-.608 2.188c-.173.586-.282.586-.563.586-2.339 0-4.637-.111-7.778-.111-.711 0-2.533.111-3.638.111-.063 0-.132-.217-.132-.348 0-.174.048-.367.132-.367 1.884-.088 2.405-.283 2.405-2.276V7.982zm16.223 9.076c0 3.163.067 3.185 2.189 3.294l.104.152v.409c0 .13-.322.154-.517.154-.305 0-1.754-.11-2.64-.11-1.043 0-2.102.11-3.228.11-.086-.045-.11-.175-.11-.39.024-.281.065-.325.695-.325 1.494 0 1.558-.325 1.558-1.972V8.026c0-1.235-.367-1.539-2.188-1.539l-.065-.105-.041-.35c.02-.237.214-.257.346-.257.585 0 1.277.106 2.748.106 1.084 0 2.383-.106 3.25-.106l.108.152v.386l-.085.131-.585.043c-.868.065-1.539.153-1.539 1.151v9.42zm11.27 1.689c0 1.605 1.084 1.605 2.428 1.605l.127.106v.347c0 .262-.11.262-.454.262-.433 0-1.494-.11-3.007-.11-1.195 0-3.055.11-3.579.11-.04-.154-.085-.262-.085-.39 0-.067.022-.197.085-.24l.219-.085h.26c1.97 0 2.056-.674 2.056-2.47V7.614l-.066-.996h-2.9c-1.648 0-1.904 1.04-2.316 2.425-.044.131-.132.195-.263.195-.301 0-.5-.086-.5-.215 0-.369.264-2.383.264-4.096 0-.085.303-.085.603-.085.696.933.91.933 1.844.933h8.057c1.517 0 1.948-.457 2.493-1.128.15 0 .65 0 .65.195 0 .174-.433 1.949-.48 3.51 0 .236-.062.691-.17.691-.195 0-.695-.106-.695-.215l-.087-1.085c-.086-1.103-.608-1.125-1.497-1.125h-2.988v12.129zM225.91 7.224c-.236-.584-1.104-.736-1.709-.736l-.13-.106v-.564l.24-.043c.905 0 2.226.107 2.706.107.995 0 1.968-.107 2.966-.107l.068.063-.068.607-1.017.086c-.346.022-.735.151-.735.477 0 .173.108.455.193.65l2.49 6.5 1.411 3.227c.148.323.173.387.237.387.045 0 .11-.087.196-.346l3.096-8.208c.346-.933.605-1.733.586-1.994-.022-.366-.131-.561-.758-.627l-1.126-.109-.13-.064V5.75c.844 0 1.688.131 2.532.131.672 0 2.103-.131 2.254-.131l.171.087v.5l-.194.15-.67.043c-.435.022-.606.24-.911.999-2.057 4.96-2.553 6.517-4.201 10.7l-1.108 2.813c-.104.306-.15.325-.302.325-.193 0-.238-.064-.28-.15l-5.807-13.994zm19.974 6.933-2.405-6.194h-.042l-2.056 6.194h4.503zM241.1 15l-.954 3.077c-.172.562-.259 1.061-.259 1.408 0 .714 1.019.867 1.603.867.195 0 .237.129.237.41 0 .217-.019.305-.17.305-.498 0-2.082-.11-2.668-.11-.581 0-1.49.11-2.14.11-.435 0-.435-.067-.435-.349v-.237c0-.108.195-.153.713-.195 1.126-.109 1.28-.325 1.693-1.516l4.284-12.476c.435-.367.89-.867 1.433-1.042l5.436 13.712c.369.909.756 1.364 2.016 1.364.237 0 .279.263.279.5 0 .24-.151.24-.413.24-.345 0-1.732-.112-2.576-.112-.866 0-1.734.044-2.598.111-.323 0-.35-.067-.35-.372 0-.236.133-.343.437-.343.326 0 1.384-.066 1.384-.587 0-.171-.085-.518-.39-1.277L246.277 15H241.1zm13.745-6.562c0-.434-.027-.542-.111-.715-.194-.37-1.15-1.147-1.515-1.17l-1.15-.066c-.085 0-.111-.215-.111-.388 0-.11 0-.281.11-.281.672 0 1.193-.043 1.734-.043.994 0 2.578.084 2.965.13l6.565 7.925a50.029 50.029 0 0 0 3.53 3.9h.087V8.199c0-1.426-.519-1.646-1.213-1.666l-.93-.045c-.088 0-.132-.215-.132-.365 0-.132.07-.347.198-.347.474 0 1.6.107 2.663.107.976 0 2.012-.107 2.623-.107.109 0 .129.084.129.174v.409c0 .109-.042.13-.193.13h-.567c-1.493 0-1.493.76-1.493 2.6v12.54h-.523L255.816 8.266v9.943c0 1.86.256 2.078 2.123 2.144.088 0 .15.194.15.367s-.02.348-.084.348c-.416 0-1.799-.11-2.71-.11-1.06 0-1.537.11-2.535.11-.128 0-.153-.154-.153-.435 0-.195.025-.28.281-.28.913 0 1.956-.216 1.956-1.321V8.438zm33.652 3.443-3.206-8.27h-.062l-2.746 8.27h6.014zm-6.391 1.126-1.272 4.105c-.231.752-.343 1.418-.343 1.88 0 .955 1.353 1.157 2.14 1.157.257 0 .317.173.317.546 0 .293-.031.407-.233.407-.663 0-2.775-.146-3.559-.146-.774 0-1.992.146-2.86.146-.58 0-.58-.085-.58-.462v-.318c0-.145.26-.202.957-.261 1.505-.143 1.709-.434 2.26-2.023l5.72-16.65c.576-.492 1.18-1.158 1.904-1.388l7.257 18.298c.493 1.214 1.014 1.822 2.687 1.822.321 0 .375.346.375.665 0 .317-.197.317-.545.317-.465 0-2.312-.146-3.444-.146-1.151 0-2.311.06-3.466.146-.431 0-.464-.085-.464-.492 0-.317.173-.461.583-.461.435 0 1.85-.088 1.85-.781 0-.23-.115-.695-.526-1.706l-1.85-4.655h-6.908zm30.336-7.232c.671 0 1.362.063 2.056.063.544 0 1.105-.063 1.647-.063.324 0 .39.084.39.152v.345c0 .15-.066.26-.155.26-.15 0-.387-.045-.649-.045-1.258 0-1.258.629-1.258 2.038 0 1.234.24 9.335.24 10.526 0 .605.305 1.3 1.236 1.3.867 0 .971.044.971.24 0 .26-.126.476-.191.476-1.15 0-2.057-.11-2.968-.11-.91 0-1.84.11-2.772.11-.153 0-.173-.087-.173-.216v-.218c0-.216.195-.281 1.191-.281.435 0 .822-.52.822-1.279 0-2.338-.084-7.386-.173-11.09-.087-.02-.065-.02-.065-.02-1.212 2.49-2.792 6.107-3.528 8.036l-2.041 5.35c-.017.063-.084.128-.193.128-.105 0-.195-.109-.258-.41a9.81 9.81 0 0 0-.544-1.582l-4.093-9.965c-.153-.369-.282-.628-.365-.628-.092 0-.092.432-.092.673 0 1.711-.256 8.25-.256 9.314 0 .93 0 1.473 1.906 1.473.13 0 .15.107.15.367 0 .086-.02.348-.108.348-.305 0-1.364-.11-2.534-.11-1.232 0-2.447.11-2.752.11-.064 0-.13-.067-.13-.176v-.323c0-.195.175-.216.435-.216 1.775 0 2.035-.542 2.035-2.428 0-1.061.365-9.032.365-9.812 0-1.148-.561-1.625-2.506-1.625-.067 0-.112-.106-.112-.238v-.28c0-.11.066-.194.176-.194.821 0 1.602.107 2.467.107.54 0 1.104-.107 1.647-.107.154 0 .305.347.41.628l4.68 11.198h.103l4.989-11.826zm7.833 7.407c-1.565-.933-2.193-1.8-2.193-3.486 0-2.71 2.209-4.225 5.134-4.225.824 0 1.994.28 2.732.606l.151 2.709v.106c0 .11-.218.151-.523.151-.282 0-.321-.129-.345-.344-.151-1.451-1.19-2.386-2.73-2.386-1.47 0-2.62 1.04-2.62 2.429 0 1.558.955 2.164 3.12 3.312 2.147 1.128 4.01 2.122 4.01 4.83 0 2.949-2.67 4.484-5.373 4.484-.89 0-2.364-.28-3.187-.628-.172-.086-.237-.368-.304-.844l-.26-2.036c0-.13.435-.13.564-.13.07 0 .132.042.173.195.5 1.645 1.629 2.598 3.36 2.598 1.517 0 2.966-1.321 2.966-2.792 0-1.41-.8-2.253-1.926-2.925l-2.749-1.624zm15.775 5.956c0 1.605 1.081 1.605 2.425 1.605l.132.107v.347c0 .261-.11.261-.457.261-.432 0-1.492-.11-3.009-.11-1.193 0-3.057.11-3.574.11-.047-.154-.087-.261-.087-.39 0-.066.023-.196.087-.24l.218-.085h.26c1.97 0 2.056-.673 2.056-2.47V8.005l-.064-.995h-2.902c-1.647 0-1.91 1.039-2.32 2.425-.041.13-.13.195-.26.195-.306 0-.495-.087-.495-.215 0-.37.257-2.383.257-4.096 0-.085.304-.085.607-.085.694.932.909.932 1.84.932h8.057c1.516 0 1.951-.456 2.493-1.127.154 0 .648 0 .648.195 0 .174-.432 1.948-.475 3.51 0 .235-.069.69-.173.69-.196 0-.692-.105-.692-.214l-.086-1.085c-.09-1.103-.608-1.125-1.497-1.125h-2.989v12.128zm9.092-11.156c0-1.406-1.062-1.56-2.317-1.56-.086 0-.086-.109-.086-.193v-.24c0-.194.368-.214 1.126-.214.864 0 1.84.106 2.752.106.865 0 1.732-.106 2.595-.106h4.575c.17 0 .192.193.192.431V8.85c0 .087-.044.174-.153.174-.173 0-.52.02-.541-.238l-.067-.673c-.128-1.386-1.081-1.625-2.29-1.625h-2.235c-1.211 0-1.601.261-1.601 1.906v3.922c0 .064.129.174.175.174l2.553-.086c1.298-.045 1.67-.455 1.993-1.606.042-.129.11-.174.35-.174.15 0 .254.026.254.132 0 .456-.127 1.452-.127 2.166 0 1.17.127 1.798.127 2.166 0 .13-.214.26-.345.26-.172 0-.323-.065-.368-.283-.108-.581-.108-.994-.214-1.297-.112-.325-.372-.477-1.021-.5l-3.074-.063c-.303 0-.303.106-.303.257v5.159c0 1.558 1.147 1.601 2.642 1.601h1.17c1.149 0 1.95-.023 2.49-.348.481-.28 1.149-1.6 1.385-2.142.285 0 .65.064.65.215 0 .066-.064.238-.106.347l-.608 2.188c-.172.586-.28.586-.562.586-2.34 0-4.636-.111-7.775-.111-.715 0-2.535.111-3.639.111-.067 0-.13-.217-.13-.348 0-.174.041-.367.13-.367 1.881-.088 2.403-.283 2.403-2.276V7.982zm15.545 4.744c.282.022.543.045.822.045 1.732 0 3.9-.608 3.9-3.164 0-1.904-1.299-3.14-3.204-3.14-1.475 0-1.518.345-1.518.995v5.264zm-1.949-4.614c0-1.081-.045-1.625-1.41-1.625h-.89c-.127 0-.15-.237-.15-.41 0-.109.067-.303.15-.303 1.257 0 2.541.064 3.795.064.997 0 1.972-.064 2.965-.064 2.21 0 4.379 1.474 4.379 3.746 0 1.97-1.8 3.292-3.49 3.553v.042c.846.195 1.736 1.777 1.95 2.122l2.383 3.641c.755 1.15 1.254 1.366 2.558 1.43l.127.129v.413c0 .192-.15.217-.237.217-.458 0-1.13-.067-1.452-.067-.521 0-1.04.067-1.559.067-.499 0-1.474-1.453-2.751-3.726-1.407-2.493-2.233-3.858-3.664-3.858-.17 0-.432 0-.755.045v5.308c0 .778 0 1.515 1.085 1.515.818 0 1.191 0 1.191.171 0 .412-.064.545-.394.545-1.127 0-2.054-.11-2.989-.11-.365 0-2.767.11-3.074.11-.13 0-.172-.282-.172-.457 0-.193.084-.237.517-.259 1.494-.065 1.887-.282 1.887-1.778V8.112zm17.49 9.71c0 2.384 2.449 2.384 3.399 2.384 2.966 0 6.127-2.447 6.127-6.976 0-3.856-2.076-5.762-3.573-6.627-1.038-.455-2.404-.563-3.335-.563-1.773 0-2.618.128-2.618 1.517v10.266zm-1.954-9.66c0-.823-.17-1.667-.973-1.667-.26 0-.95.086-1.363.086-.089 0-.089-.324-.089-.433 0-.13 0-.195.37-.28 1.454-.305 4.915-.542 6.777-.542 1.194 0 2.32.108 3.383.387 2.943.804 5.695 3.425 5.695 7.41 0 5.37-4.486 7.799-8.601 7.799-2.058 0-3.142-.089-4.22-.089-1.086 0-2.167.065-3.251.089-.086 0-.108-.195-.108-.35 0-.15.108-.366.195-.366.695-.087 1.254-.13 1.647-.39.324-.217.538-.565.538-1.256V8.161zm22.438 5.995-2.407-6.194h-.044l-2.05 6.194h4.5zm-4.79.843-.95 3.077c-.176.562-.26 1.061-.26 1.408 0 .714 1.017.867 1.604.867.192 0 .235.129.235.41 0 .217-.022.305-.171.305-.5 0-2.079-.11-2.665-.11-.585 0-1.495.11-2.144.11-.432 0-.432-.067-.432-.349v-.237c0-.108.195-.153.714-.195 1.126-.109 1.277-.325 1.688-1.516l4.287-12.476c.433-.367.89-.867 1.43-1.042l5.437 13.712c.372.909.761 1.364 2.016 1.364.24 0 .28.263.28.5 0 .24-.149.24-.407.24-.346 0-1.736-.112-2.58-.112-.867 0-1.735.044-2.602.111-.322 0-.344-.067-.344-.372 0-.236.13-.343.432-.343.325 0 1.388-.066 1.388-.587 0-.171-.087-.518-.391-1.277L397.1 15h-5.18zm26.111-9.225c.673 0 1.366.063 2.06.063.538 0 1.105-.063 1.646-.063.323 0 .387.084.387.152v.345c0 .15-.064.26-.147.26-.153 0-.393-.045-.653-.045-1.253 0-1.253.629-1.253 2.038 0 1.234.236 9.335.236 10.526 0 .605.304 1.3 1.236 1.3.863 0 .975.044.975.24 0 .26-.131.476-.196.476-1.151 0-2.057-.11-2.969-.11-.908 0-1.84.11-2.774.11-.15 0-.172-.087-.172-.216v-.218c0-.216.196-.281 1.19-.281.434 0 .822-.52.822-1.279 0-2.338-.083-7.386-.17-11.09-.086-.02-.067-.02-.067-.02-1.212 2.49-2.794 6.107-3.528 8.036l-2.036 5.35a.203.203 0 0 1-.195.128c-.11 0-.194-.109-.261-.41-.13-.545-.325-1.064-.542-1.582l-4.093-9.965c-.153-.369-.28-.628-.367-.628-.087 0-.087.432-.087.673 0 1.711-.263 8.25-.263 9.314 0 .93 0 1.473 1.908 1.473.13 0 .15.107.15.367 0 .086-.02.348-.11.348-.299 0-1.362-.11-2.532-.11-1.236 0-2.449.11-2.749.11-.065 0-.128-.067-.128-.176v-.323c0-.195.17-.216.428-.216 1.779 0 2.039-.542 2.039-2.428 0-1.061.368-9.032.368-9.812 0-1.148-.56-1.625-2.515-1.625-.061 0-.109-.106-.109-.238v-.28c0-.11.068-.194.177-.194.822 0 1.6.107 2.472.107.54 0 1.1-.107 1.643-.107.153 0 .303.347.412.628l4.677 11.198h.11l4.98-11.826zM0 42h42V0H0v42zM16.07 3.856 17.828 2.1 21 5.273 24.173 2.1l1.756 1.755-3.173 3.173 3.173 3.174-1.756 1.756L21 8.786l-3.173 3.172-1.756-1.756 3.173-3.174-3.173-3.172zm3.174 14.826-3.173-3.173 1.756-1.755L21 16.925l3.173-3.171 1.756 1.755-3.173 3.173 3.173 3.173-1.756 1.756L21 20.438l-3.173 3.172-1.756-1.755 3.173-3.173zm6.681 19.438-1.755 1.756-3.173-3.172-3.173 3.171-1.757-1.755 3.173-3.173-3.172-3.173 1.756-1.756 3.173 3.172 3.173-3.172 1.755 1.756-3.173 3.173 3.173 3.173zm1.228-9.037.006-3.824-1.723 1.617s-1.004 1.031-3.276 1.616c-2.272.581-3.995.476-5.027.268-1.033-.206-1.962-.482-2.547-.76-.586-.276-1.618-.794-2.546-2.243-.55-.854-.55-2.996-.55-2.996l.042-3.993-.302-6.753s1.023.045 1.72.048c.86.004 1.6-.188 1.62-.077.033.21.057 9.403.057 9.403s.1 1.962.583 2.961c.845 1.755 4.612 1.9 4.612 1.9s.585.07 1.895-.033c1.307-.1 3.859-.478 4.684-2.024 0 0 .587-.654.799-4.372.22-3.895-.301-7.75-.301-7.75l3.651-.167s-.247 2.753-.253 7.918c-.004 5.168.473 8.198.473 8.198l-3.617 1.063z"/></symbol>
<symbol id="logo-uva-medium-en" viewBox="0 0 200 42" preserveAspectRatio="xMinYMin"><title>logo-UvA-medium-en </title><path d="M43.953 3.288c0-1.824-1.11-1.824-2.38-1.824l-.114-.095V.978c0-.253.161-.277.415-.277.6 0 2.079.117 3.164.117C46.19.818 47.367.7 48.521.7l.07.069v.6l-.115.094H48.2c-1.502 0-2.172.159-2.172 1.893v6.693c0 3.324.648 5.933 4.616 5.933 4.133 0 5.47-1.987 5.47-5.888V4.094c0-2.63 0-2.448-2.03-2.63l-.092-.186V.84l.07-.138c.414 0 .876.117 2.606.117.972 0 2.195-.117 2.934-.117l.091.138v.485l-.14.14c-1.681 0-2.284.092-2.284 1.244v8.24c0 4.228-2.469 6.372-6.67 6.372-3.347 0-6.647-1.176-6.647-5.031V3.288Z"/><path d="M61.012 6.885c0-.347-.016-.433-.086-.57-.154-.297-.917-.917-1.209-.936l-.918-.051c-.07 0-.087-.173-.087-.31 0-.09 0-.226.087-.226.537 0 .95-.035 1.381-.035.798 0 2.061.07 2.37.105l5.243 6.33a39.722 39.722 0 0 0 2.82 3.114h.068v-7.61c0-1.143-.415-1.317-.97-1.332l-.742-.036c-.07 0-.106-.173-.106-.292 0-.108.052-.28.157-.28.38 0 1.28.088 2.127.088.78 0 1.61-.087 2.093-.087.088 0 .104.07.104.14v.327c0 .085-.036.104-.155.104h-.45c-1.192 0-1.192.606-1.192 2.076V17.42h-.416L61.79 6.748v7.94c0 1.485.209 1.655 1.695 1.71.069 0 .121.156.121.292 0 .14-.017.279-.069.279-.329 0-1.434-.087-2.16-.087-.849 0-1.23.087-2.023.087-.106 0-.124-.121-.124-.346 0-.157.018-.225.227-.225.723 0 1.555-.171 1.555-1.055V6.885zm16.87 6.884c0 2.524.051 2.541 1.747 2.63l.087.122v.327c0 .103-.26.12-.416.12-.242 0-1.4-.086-2.11-.086-.83 0-1.678.087-2.576.087-.069-.036-.086-.139-.086-.313.017-.223.051-.258.552-.258 1.194 0 1.245-.26 1.245-1.575V6.556c0-.985-.293-1.228-1.746-1.228l-.051-.085-.034-.279c.016-.19.173-.208.276-.208.466 0 1.02.088 2.195.088.864 0 1.904-.088 2.595-.088l.086.124v.31l-.069.105-.467.033c-.691.051-1.229.123-1.229.918v7.523zm4.153-7.854c-.19-.464-.88-.587-1.367-.587l-.103-.085v-.45l.19-.036c.727 0 1.783.087 2.164.087.794 0 1.572-.087 2.367-.087l.052.054-.052.484-.812.069c-.277.015-.588.12-.588.378 0 .139.087.364.156.52l1.988 5.191 1.126 2.573c.12.26.137.313.19.313.034 0 .084-.072.154-.274l2.474-6.558c.277-.742.484-1.385.467-1.592-.018-.293-.105-.448-.605-.497l-.9-.09-.104-.052v-.534c.676 0 1.348.102 2.025.102.536 0 1.677-.102 1.798-.102l.138.069v.397l-.154.12-.538.036c-.347.015-.485.19-.725.796-1.644 3.959-2.041 5.206-3.355 8.543l-.883 2.248c-.085.243-.12.259-.242.259-.157 0-.19-.052-.224-.121L82.035 5.915zm13.53.606c0-1.123-.847-1.245-1.85-1.245-.07 0-.07-.086-.07-.157v-.19c0-.154.295-.172.9-.172.692 0 1.47.087 2.197.087.69 0 1.384-.087 2.076-.087h3.649c.137 0 .154.158.154.346v2.11c0 .07-.034.138-.12.138-.138 0-.414.02-.433-.19l-.051-.535c-.106-1.106-.866-1.298-1.834-1.298h-1.78c-.971 0-1.28.21-1.28 1.523v3.13c0 .05.103.138.138.138l2.04-.069c1.037-.034 1.334-.364 1.592-1.28.034-.101.087-.138.275-.138.124 0 .21.017.21.105 0 .363-.104 1.158-.104 1.73 0 .93.105 1.436.105 1.726 0 .106-.175.21-.279.21-.137 0-.26-.053-.294-.226-.085-.465-.085-.799-.171-1.037-.089-.258-.297-.381-.815-.396l-2.456-.055c-.242 0-.242.09-.242.208v4.118c0 1.245.918 1.278 2.11 1.278h.934c.917 0 1.556-.016 1.99-.274.381-.228.916-1.283 1.105-1.713.226 0 .52.05.52.172 0 .053-.05.192-.086.276l-.485 1.747c-.138.468-.224.468-.45.468-1.867 0-3.7-.087-6.208-.087-.57 0-2.024.087-2.907.087-.051 0-.104-.175-.104-.279 0-.136.036-.291.104-.291 1.508-.07 1.92-.226 1.92-1.817V6.521zm12.96 3.79c.227.016.432.033.657.033 1.385 0 3.115-.483 3.115-2.525 0-1.524-1.04-2.51-2.56-2.51-1.177 0-1.211.28-1.211.797v4.205zm-1.556-3.685c0-.865-.036-1.298-1.124-1.298h-.708c-.105 0-.12-.19-.12-.328 0-.085.05-.244.12-.244 1 0 2.024.055 3.026.055.794 0 1.574-.055 2.37-.055 1.764 0 3.493 1.177 3.493 2.994 0 1.572-1.436 2.629-2.785 2.836v.034c.674.158 1.383 1.42 1.558 1.695l1.9 2.908c.607.916 1.005 1.087 2.041 1.142l.105.101v.328c0 .157-.122.175-.19.175-.362 0-.899-.051-1.16-.051-.413 0-.83.05-1.245.05-.396 0-1.176-1.159-2.197-2.975-1.123-1.99-1.781-3.078-2.92-3.078-.14 0-.347 0-.607.033v4.242c0 .62 0 1.208.865 1.208.657 0 .95 0 .95.138 0 .328-.05.433-.31.433-.898 0-1.643-.087-2.388-.087-.293 0-2.213.087-2.454.087-.105 0-.139-.226-.139-.364 0-.153.069-.189.417-.207 1.192-.054 1.502-.225 1.502-1.419V6.626zm12.615 4.046c-1.245-.743-1.748-1.436-1.748-2.784 0-2.16 1.766-3.371 4.099-3.371.658 0 1.592.225 2.178.483l.12 2.162v.086c0 .088-.17.123-.413.123-.226 0-.258-.105-.275-.278-.123-1.16-.952-1.903-2.182-1.903-1.175 0-2.09.829-2.09 1.939 0 1.243.758 1.73 2.488 2.643 1.713.9 3.201 1.696 3.201 3.859 0 2.352-2.128 3.579-4.288 3.579-.71 0-1.887-.227-2.544-.5-.138-.072-.19-.294-.24-.673l-.209-1.628c0-.103.347-.103.449-.103.052 0 .104.033.138.153.398 1.317 1.297 2.077 2.683 2.077 1.21 0 2.368-1.054 2.368-2.23 0-1.126-.64-1.801-1.54-2.336l-2.195-1.298zm10.208 3.097c0 2.524.051 2.541 1.747 2.63l.088.122v.327c0 .103-.261.12-.419.12-.24 0-1.398-.086-2.108-.086-.831 0-1.676.087-2.576.087-.07-.036-.086-.139-.086-.313.016-.223.05-.258.551-.258 1.196 0 1.247-.26 1.247-1.575V6.556c0-.985-.294-1.228-1.748-1.228l-.05-.085-.036-.279c.018-.19.174-.208.277-.208.467 0 1.02.088 2.196.088.866 0 1.903-.088 2.596-.088l.086.124v.31l-.068.105-.47.033c-.69.051-1.227.123-1.227.918v7.523zm9.186 1.351c0 1.278.865 1.278 1.938 1.278l.104.087v.276c0 .207-.087.207-.366.207-.346 0-1.193-.086-2.402-.086-.95 0-2.437.086-2.855.086-.035-.12-.069-.207-.069-.312 0-.051.018-.155.07-.19l.174-.068h.208c1.574 0 1.643-.535 1.643-1.972V6.229l-.051-.796h-2.318c-1.316 0-1.525.83-1.852 1.938-.034.103-.104.154-.208.154-.24 0-.4-.07-.4-.174 0-.293.21-1.9.21-3.268 0-.069.244-.069.483-.069.554.743.728.743 1.473.743h6.432c1.211 0 1.556-.363 1.99-.899.119 0 .517 0 .517.156 0 .139-.345 1.557-.381 2.803 0 .19-.053.554-.136.554-.156 0-.555-.089-.555-.177l-.069-.862c-.067-.881-.484-.899-1.19-.899h-2.39v9.687zm10.65-3.65c0-.176-.017-.401-.208-.681l-3.902-5.276c-.104-.158-.26-.244-.663-.26l-.66-.038-.104-.051V4.71l.104-.051h.209c.296 0 2.16.086 2.49.086.435 0 1.134-.086 1.707-.086.382 0 .556 0 .556.105v.21c0 .172-.052.258-.104.258l-1.01.036c-.245 0-.4.103-.4.295 0 .07.102.245.28.469l2.489 3.468c.138.192.295.365.47.523.33-.315 1.865-2.423 2.613-3.518.279-.403.437-.733.437-.871 0-.244-.142-.347-.647-.366l-.872-.036c.02 0 0-.258 0-.33 0-.088.02-.192.107-.243.678.069 1.514.086 2.263.086.506 0 1.27-.086 1.497-.086l.106.069v.401l-.07.07-.644.033c-.558.036-1.254 1.219-1.586 1.672l-2.889 3.955v4.091c0 .366.016.682.052.786.138.415.591.645 1.236.645h.47l.156.07v.486l-.087.018h-.262c-.766 0-1.513-.09-2.281-.09-.782 0-1.585.09-2.367.09h-.245l-.14-.036v-.297c0-.102.035-.225.175-.24l.817-.09c.506-.052.907-.226.907-1.096V11.47zM53.046 35.517c0-2.905-1.985-5.86-5.097-5.86-3.198 0-4.737 2.506-4.737 5.424 0 2.959 1.797 6.018 5.013 6.018 3.181 0 4.821-2.608 4.821-5.582m-11.682.136c0-3.613 3.092-6.568 6.672-6.568 3.628 0 6.862 2.489 6.862 6.084 0 3.477-3.354 6.604-6.796 6.604-3.61 0-6.738-2.347-6.738-6.12m15.649-4.387c0-1.053-.171-1.28-1.19-1.28h-.295c-.309.019-.447-.035-.447-.14 0-.139 0-.433.192-.433h7.084c.587 0 1.175-.084 1.78-.084.103 0 .243.018.243.156l.07 1.95c0 .122.018.244.018.365 0 .07-.139.102-.314.102h-.258c-.036-.205-.07-.414-.12-.602l-.156-.537c-.189-.676-.691-.778-1.229-.778h-2.42c-1.28 0-1.401.396-1.401 1.66v3.042h2.56c1.485 0 1.849-.414 1.849-1.365.172-.038.346-.088.467-.088.069 0 .105.036.105.122 0 .136-.07.397-.07 1.659 0 .502.07 1.4.07 1.78 0 .156-.12.224-.312.224-.138 0-.19-.154-.26-.431-.12-.71-.466-1.332-1.935-1.332H58.57v4.53c0 .674.09 1.037.971 1.107l.898.07c.086 0 .119.104.119.222 0 .14 0 .346-.188.346-1.298 0-1.85-.085-2.663-.085-.709 0-1.987.085-2.452.085-.142 0-.142-.173-.142-.307 0-.106.018-.262.09-.262l.761-.051c.913-.07 1.049-.277 1.049-1.296v-8.35zm23.19 2.99-2.567-6.617h-.049l-2.194 6.616h4.81zm-5.115.903-1.016 3.284c-.187.603-.277 1.133-.277 1.505 0 .763 1.085.924 1.713.924.205 0 .254.138.254.44 0 .23-.026.326-.188.326-.53 0-2.22-.119-2.844-.119-.622 0-1.596.119-2.292.119-.46 0-.46-.072-.46-.373v-.255c0-.115.205-.16.762-.208 1.204-.114 1.368-.345 1.808-1.62l4.579-13.323c.46-.392.947-.927 1.523-1.111l5.81 14.644c.391.972.81 1.457 2.15 1.457.255 0 .3.279.3.532 0 .257-.158.257-.437.257-.375 0-1.853-.119-2.756-.119-.925 0-1.851.047-2.775.119-.346 0-.37-.072-.37-.396 0-.252.139-.37.464-.37.348 0 1.48-.07 1.48-.625 0-.185-.092-.555-.417-1.365l-1.48-3.723h-5.531zm24.308-5.785c.538 0 1.092.05 1.648.05.435 0 .885-.05 1.318-.05.26 0 .313.068.313.122v.276c0 .121-.052.208-.124.208-.12 0-.31-.035-.52-.035-1.007 0-1.007.504-1.007 1.632 0 .989.192 7.478.192 8.433 0 .484.244 1.042.99 1.042.694 0 .778.035.778.191 0 .208-.102.382-.153.382-.921 0-1.648-.09-2.378-.09-.729 0-1.475.09-2.22.09-.124 0-.139-.07-.139-.174v-.174c0-.173.156-.225.954-.225.348 0 .659-.416.659-1.024 0-1.873-.068-5.917-.139-8.885-.07-.016-.052-.016-.052-.016-.97 1.996-2.237 4.893-2.827 6.437l-1.635 4.286c-.013.051-.066.103-.154.103-.084 0-.156-.087-.207-.328a7.801 7.801 0 0 0-.436-1.267l-3.279-7.984c-.122-.295-.225-.503-.292-.503-.074 0-.074.347-.074.54 0 1.37-.205 6.609-.205 7.46 0 .746 0 1.18 1.528 1.18.103 0 .12.086.12.295 0 .069-.017.279-.087.279-.244 0-1.092-.09-2.03-.09-.987 0-1.96.09-2.205.09-.05 0-.104-.054-.104-.141v-.26c0-.156.14-.172.348-.172 1.423 0 1.63-.435 1.63-1.945 0-.85.293-7.236.293-7.86 0-.92-.45-1.302-2.008-1.302-.053 0-.09-.085-.09-.19v-.226c0-.087.054-.155.142-.155.658 0 1.284.086 1.976.086.433 0 .885-.086 1.32-.086.123 0 .244.278.328.503l3.75 8.97h.082l3.996-9.473zm6.276 5.934c-1.254-.747-1.758-1.442-1.758-2.792 0-2.171 1.77-3.385 4.113-3.385.66 0 1.597.224 2.189.485l.12 2.17v.086c0 .087-.174.12-.418.12-.225 0-.257-.103-.276-.275-.121-1.163-.955-1.911-2.187-1.911-1.179 0-2.098.833-2.098 1.945 0 1.249.764 1.734 2.498 2.653 1.72.904 3.212 1.7 3.212 3.87 0 2.362-2.138 3.592-4.304 3.592-.712 0-1.893-.225-2.553-.503-.137-.07-.19-.295-.244-.677l-.207-1.63c0-.104.348-.104.451-.104.057 0 .106.033.139.155.4 1.318 1.305 2.082 2.691 2.082 1.216 0 2.376-1.059 2.376-2.237 0-1.129-.64-1.805-1.543-2.343l-2.201-1.301zm12.636 4.771c0 1.286.866 1.286 1.943 1.286l.106.086v.278c0 .21-.088.21-.366.21-.346 0-1.195-.09-2.41-.09-.956 0-2.45.09-2.864.09-.037-.124-.07-.21-.07-.313 0-.054.019-.158.07-.193l.175-.068h.208c1.579 0 1.648-.54 1.648-1.979v-8.225l-.052-.798h-2.325c-1.32 0-1.53.833-1.858 1.943-.033.105-.104.156-.208.156-.246 0-.397-.07-.397-.172 0-.296.206-1.909.206-3.281 0-.068.243-.068.487-.068.555.747.727.747 1.473.747h6.454c1.215 0 1.564-.366 1.997-.904.124 0 .52 0 .52.157 0 .14-.347 1.56-.381 2.811 0 .19-.055.554-.139.554-.157 0-.554-.085-.554-.172l-.069-.87c-.072-.883-.486-.9-1.199-.9h-2.395v9.715zm7.284-8.937c0-1.126-.851-1.25-1.857-1.25-.067 0-.067-.086-.067-.154v-.192c0-.156.294-.172.9-.172.693 0 1.475.086 2.206.086.693 0 1.387-.086 2.079-.086h3.664c.136 0 .155.155.155.346v2.117c0 .07-.036.14-.123.14-.138 0-.416.015-.433-.191l-.054-.54c-.103-1.11-.866-1.301-1.836-1.301h-1.79c-.97 0-1.282.209-1.282 1.526v3.142c0 .052.104.14.14.14l2.045-.07c1.04-.035 1.339-.364 1.597-1.286.034-.103.088-.139.28-.139.12 0 .204.02.204.106 0 .365-.101 1.163-.101 1.735 0 .937.101 1.44.101 1.735 0 .104-.171.209-.276.209-.138 0-.26-.053-.295-.227-.086-.466-.086-.797-.171-1.04-.09-.26-.299-.382-.818-.4l-2.464-.05c-.242 0-.242.085-.242.206v4.132c0 1.248.92 1.283 2.116 1.283h.938c.92 0 1.562-.018 1.996-.28.384-.223.92-1.28 1.108-1.715.228 0 .52.051.52.172 0 .053-.05.19-.084.278l-.487 1.753c-.138.47-.223.47-.45.47-1.875 0-3.715-.09-6.229-.09-.572 0-2.03.09-2.914.09-.055 0-.106-.174-.106-.28 0-.138.034-.294.106-.294 1.506-.07 1.924-.226 1.924-1.822v-8.087zm12.453 3.8c.226.018.435.037.66.037 1.386 0 3.123-.487 3.123-2.535 0-1.525-1.04-2.516-2.567-2.516-1.182 0-1.216.278-1.216.798v4.217zm-1.561-3.696c0-.866-.036-1.301-1.13-1.301h-.713c-.101 0-.12-.19-.12-.329 0-.087.054-.242.12-.242 1.008 0 2.035.05 3.04.05.8 0 1.58-.05 2.376-.05 1.77 0 3.507 1.18 3.507 3 0 1.579-1.441 2.638-2.795 2.847v.034c.677.156 1.39 1.423 1.562 1.7l1.91 2.917c.604.92 1.004 1.093 2.048 1.145l.102.103v.331c0 .154-.121.174-.19.174-.366 0-.905-.054-1.164-.054-.417 0-.832.054-1.248.054-.4 0-1.18-1.164-2.204-2.985-1.128-1.997-1.789-3.09-2.935-3.09-.136 0-.346 0-.605.036v4.251c0 .624 0 1.214.87 1.214.655 0 .953 0 .953.137 0 .33-.05.437-.316.437-.902 0-1.645-.089-2.393-.089-.293 0-2.217.089-2.463.089-.104 0-.139-.226-.139-.366 0-.156.068-.19.415-.208 1.197-.052 1.512-.226 1.512-1.424v-8.38zm14.011 7.78c0 1.91 1.961 1.91 2.722 1.91 2.377 0 4.91-1.961 4.91-5.59 0-3.088-1.665-4.616-2.863-5.309-.832-.364-1.926-.45-2.671-.45-1.421 0-2.098.102-2.098 1.215v8.224zm-1.565-7.74c0-.659-.136-1.335-.78-1.335-.208 0-.761.069-1.092.069-.07 0-.07-.26-.07-.347 0-.104 0-.156.296-.224 1.164-.244 3.937-.434 5.428-.434.957 0 1.859.086 2.71.31 2.358.644 4.562 2.743 4.562 5.935 0 4.303-3.594 6.248-6.89 6.248-1.648 0-2.517-.07-3.38-.07-.87 0-1.736.05-2.604.07-.07 0-.087-.156-.087-.28 0-.12.087-.293.156-.293.556-.07 1.005-.104 1.32-.313.26-.174.43-.452.43-1.005v-8.331zm17.974 4.803-1.927-4.962h-.036l-1.643 4.962h3.606zm-3.838.676-.76 2.464c-.14.45-.208.85-.208 1.129 0 .57.815.694 1.285.694.153 0 .189.103.189.328 0 .174-.019.245-.138.245-.4 0-1.665-.09-2.135-.09-.47 0-1.197.09-1.717.09-.346 0-.346-.054-.346-.28v-.19c0-.087.156-.123.572-.156.901-.087 1.022-.26 1.352-1.215l3.435-9.994c.346-.294.712-.694 1.145-.835l4.355 10.985c.298.728.61 1.092 1.615 1.092.193 0 .225.211.225.4 0 .193-.12.193-.327.193-.277 0-1.39-.09-2.066-.09-.696 0-1.39.036-2.084.09-.259 0-.276-.054-.276-.298 0-.19.104-.275.346-.275.26 0 1.112-.053 1.112-.47 0-.138-.07-.416-.314-1.023l-1.109-2.794h-4.15zm20.919-7.39c.539 0 1.094.05 1.65.05.43 0 .885-.05 1.318-.05.26 0 .31.067.31.12v.277c0 .121-.05.208-.118.208-.123 0-.315-.035-.522-.035-1.005 0-1.005.504-1.005 1.632 0 .989.19 7.478.19 8.433 0 .484.243 1.042.99 1.042.69 0 .781.035.781.191 0 .208-.105.382-.157.382-.922 0-1.648-.09-2.378-.09-.729 0-1.474.09-2.223.09-.12 0-.137-.07-.137-.174v-.174c0-.173.156-.225.953-.225.348 0 .658-.416.658-1.024 0-1.873-.066-5.917-.135-8.885-.07-.016-.054-.016-.054-.016-.972 1.996-2.238 4.893-2.827 6.437l-1.63 4.286a.163.163 0 0 1-.157.103c-.088 0-.156-.087-.21-.328a8.21 8.21 0 0 0-.433-1.267l-3.28-7.984c-.121-.295-.224-.503-.293-.503-.07 0-.07.347-.07.54 0 1.37-.21 6.609-.21 7.46 0 .746 0 1.18 1.527 1.18.106 0 .121.086.121.295 0 .069-.015.279-.087.279-.24 0-1.092-.09-2.03-.09-.99 0-1.962.09-2.201.09-.052 0-.103-.054-.103-.141v-.26c0-.156.136-.172.342-.172 1.425 0 1.634-.435 1.634-1.945 0-.85.295-7.236.295-7.86 0-.92-.448-1.302-2.015-1.302-.049 0-.087-.085-.087-.19v-.226c0-.087.054-.155.14-.155.66 0 1.284.086 1.983.086.43 0 .88-.086 1.315-.086.122 0 .243.278.33.503l3.747 8.97h.088l3.99-9.473zM0 34h34V0H0v34zM13.01 3.122 14.432 1.7 17 4.27 19.57 1.7l1.421 1.422-2.568 2.568 2.568 2.57-1.421 1.42L17 7.113l-2.568 2.569-1.422-1.422 2.568-2.569-2.568-2.568zm2.568 12.002-2.568-2.569 1.422-1.422L17 13.702l2.569-2.569 1.421 1.422-2.568 2.569 2.568 2.568-1.421 1.422L17 16.545l-2.568 2.569-1.422-1.422 2.568-2.568zm5.41 15.735-1.421 1.422-2.57-2.569-2.568 2.569-1.422-1.422 2.569-2.568-2.569-2.568L14.43 24.3l2.569 2.569 2.568-2.569 1.422 1.422-2.569 2.569 2.569 2.568zm.994-7.315.004-3.096-1.395 1.309s-.812.835-2.652 1.308c-1.838.471-3.233.386-4.07.217-.835-.167-1.587-.39-2.061-.615-.474-.224-1.31-.643-2.061-1.815-.445-.692-.445-2.426-.445-2.426l.034-3.233-.245-5.466s.828.036 1.393.038c.695.004 1.295-.152 1.311-.062.027.17.046 7.612.046 7.612s.082 1.589.472 2.398c.684 1.42 3.734 1.538 3.734 1.538s.474.055 1.534-.027c1.057-.081 3.124-.387 3.792-1.64 0 0 .475-.528.646-3.538.18-3.153-.243-6.274-.243-6.274l2.956-.136s-.2 2.23-.205 6.411c-.004 4.183.383 6.636.383 6.636l-2.928.86z"/></symbol>
<symbol id="logo-uva-medium-nl" viewBox="0 0 200 42" preserveAspectRatio="xMinYMin"><title>logo-UvA-medium-nl </title><path d="M44.414 3.247c0-1.802-1.097-1.802-2.352-1.802l-.115-.094V.964c0-.253.16-.276.411-.276.594 0 2.056.116 3.13.116 1.14 0 2.306-.116 3.448-.116l.068.071v.592l-.113.094h-.274c-1.486 0-2.149.158-2.149 1.871v6.626c0 3.288.64 5.867 4.57 5.867 4.088 0 5.412-1.962 5.412-5.824V4.048c0-2.603 0-2.422-2.009-2.603l-.092-.183V.827l.07-.139c.409 0 .866.116 2.58.116.959 0 2.17-.116 2.9-.116l.091.139v.478l-.137.14c-1.666 0-2.26.09-2.26 1.231v8.155c0 4.179-2.445 6.303-6.6 6.303-3.314 0-6.58-1.164-6.58-4.977v-8.91Z"/><path d="M61.295 6.81c0-.344-.017-.429-.086-.566-.153-.292-.907-.906-1.198-.925l-.907-.051c-.069 0-.084-.17-.084-.307 0-.086 0-.222.084-.222.531 0 .942-.034 1.369-.034.789 0 2.038.066 2.346.103l5.186 6.261a38.667 38.667 0 0 0 2.79 3.083h.067V6.62c0-1.127-.411-1.3-.959-1.317l-.735-.035c-.07 0-.103-.17-.103-.289 0-.104.052-.274.154-.274.377 0 1.266.084 2.105.084.77 0 1.592-.084 2.072-.084.084 0 .102.066.102.137v.323c0 .087-.035.103-.153.103h-.446c-1.18 0-1.18.6-1.18 2.054v9.91h-.413l-9.24-10.56v7.856c0 1.47.205 1.643 1.677 1.694.068 0 .12.153.12.29 0 .137-.018.276-.068.276-.326 0-1.422-.088-2.14-.088-.84 0-1.215.088-2.002.088-.103 0-.12-.122-.12-.344 0-.154.017-.222.223-.222.717 0 1.54-.17 1.54-1.044V6.81zm16.694 6.81c0 2.5.05 2.517 1.727 2.602l.086.12v.324c0 .102-.255.122-.41.122-.24 0-1.387-.088-2.088-.088-.822 0-1.66.088-2.55.088-.069-.036-.085-.139-.085-.308.016-.223.05-.258.547-.258 1.18 0 1.232-.256 1.232-1.558v-8.18c0-.976-.291-1.216-1.728-1.216l-.051-.084-.034-.276c.016-.187.17-.203.272-.203.465 0 1.011.084 2.175.084.855 0 1.883-.084 2.566-.084l.087.12v.305l-.069.104-.461.034c-.686.051-1.216.12-1.216.91v7.442zm4.244-7.77c-.19-.461-.873-.581-1.352-.581l-.103-.085V4.74l.188-.034c.719 0 1.763.085 2.138.085.789 0 1.558-.085 2.347-.085l.05.05-.05.48-.805.068c-.274.016-.583.119-.583.376 0 .137.087.36.154.514l1.97 5.135 1.111 2.55c.12.256.137.306.188.306.035 0 .086-.069.154-.273l2.447-6.486c.275-.737.48-1.37.463-1.575-.017-.289-.102-.443-.599-.495l-.89-.086-.103-.051v-.532c.668 0 1.335.104 2.002.104.532 0 1.66-.104 1.78-.104l.138.069v.394l-.154.12-.531.034c-.342.016-.48.19-.72.788-1.625 3.92-2.019 5.15-3.319 8.454l-.873 2.224c-.085.241-.12.257-.239.257-.155 0-.189-.051-.222-.12L82.233 5.85zm13.253.6c0-1.112-.84-1.233-1.83-1.233-.07 0-.07-.087-.07-.154v-.188c0-.154.291-.17.892-.17.684 0 1.454.084 2.172.084.686 0 1.368-.084 2.055-.084h3.61c.137 0 .154.153.154.341v2.088c0 .069-.034.138-.12.138-.136 0-.41.015-.428-.188l-.05-.532c-.104-1.096-.856-1.284-1.815-1.284h-1.763c-.957 0-1.266.206-1.266 1.505v3.1c0 .05.104.137.137.137l2.019-.068c1.027-.036 1.318-.36 1.575-1.269.034-.102.085-.137.273-.137.12 0 .207.02.207.104 0 .36-.103 1.147-.103 1.71 0 .926.103 1.422.103 1.713 0 .103-.17.206-.275.206-.137 0-.256-.052-.29-.225-.085-.459-.085-.785-.172-1.024-.085-.257-.29-.377-.804-.395l-2.43-.05c-.24 0-.24.084-.24.203v4.076c0 1.23.907 1.265 2.088 1.265h.925c.906 0 1.54-.018 1.967-.275.376-.22.907-1.264 1.096-1.693.222 0 .513.051.513.17 0 .053-.051.188-.085.275l-.48 1.728c-.137.464-.223.464-.444.464-1.849 0-3.664-.088-6.146-.088-.564 0-2.002.088-2.874.088-.051 0-.102-.172-.102-.276 0-.137.033-.29.102-.29 1.488-.069 1.9-.223 1.9-1.798V6.45zm12.529 3.747c.224.017.43.035.65.035 1.37 0 3.082-.48 3.082-2.5 0-1.504-1.028-2.48-2.533-2.48-1.164 0-1.199.273-1.199.786v4.159zm-1.54-3.646c0-.854-.033-1.284-1.11-1.284h-.702c-.104 0-.121-.186-.121-.324 0-.085.05-.238.12-.238.992 0 2.002.05 2.994.05.789 0 1.558-.05 2.347-.05 1.744 0 3.455 1.164 3.455 2.959 0 1.557-1.421 2.601-2.754 2.808v.033c.666.154 1.369 1.404 1.538 1.676l1.883 2.877c.6.908.994 1.079 2.02 1.13l.103.102v.326c0 .152-.12.171-.188.171-.36 0-.89-.053-1.147-.053-.41 0-.823.053-1.232.053-.393 0-1.163-1.147-2.175-2.943-1.11-1.97-1.762-3.049-2.89-3.049-.138 0-.343 0-.601.036v4.193c0 .616 0 1.198.857 1.198.65 0 .94 0 .94.135 0 .326-.05.43-.307.43-.89 0-1.625-.087-2.36-.087-.293 0-2.194.087-2.432.087-.103 0-.137-.222-.137-.36 0-.154.068-.188.412-.205 1.18-.052 1.488-.223 1.488-1.405V6.551zm12.408 4.006c-1.231-.736-1.727-1.422-1.727-2.754 0-2.141 1.746-3.338 4.054-3.338.65 0 1.575.22 2.158.479l.12 2.14v.084c0 .086-.172.12-.412.12-.223 0-.255-.102-.274-.272-.12-1.147-.941-1.886-2.156-1.886-1.165 0-2.07.822-2.07 1.92 0 1.23.751 1.71 2.463 2.616 1.694.891 3.166 1.676 3.166 3.817 0 2.33-2.104 3.542-4.244 3.542-.702 0-1.865-.222-2.515-.496-.136-.068-.189-.29-.24-.667l-.204-1.609c0-.101.34-.101.444-.101.051 0 .102.032.137.153.393 1.3 1.283 2.052 2.652 2.052 1.199 0 2.345-1.043 2.345-2.205 0-1.114-.633-1.78-1.523-2.311l-2.174-1.284zM129.1 13.62c0 2.5.053 2.517 1.729 2.602l.086.12v.324c0 .102-.257.122-.41.122-.242 0-1.387-.088-2.09-.088-.82 0-1.658.088-2.549.088-.068-.036-.085-.139-.085-.308.017-.223.052-.258.549-.258 1.18 0 1.23-.256 1.23-1.558v-8.18c0-.976-.29-1.216-1.727-1.216l-.052-.084-.034-.276c.017-.187.17-.203.274-.203.462 0 1.009.084 2.173.084.857 0 1.882-.084 2.568-.084l.086.12v.305l-.068.104-.465.034c-.684.051-1.215.12-1.215.91v7.442zm9.234 1.334c0 1.268.854 1.268 1.916 1.268l.103.085v.274c0 .207-.086.207-.359.207-.343 0-1.183-.088-2.38-.088-.94 0-2.412.088-2.824.088-.033-.122-.068-.207-.068-.308 0-.053.018-.156.068-.19l.174-.068h.202c1.559 0 1.626-.532 1.626-1.951V6.158l-.05-.787h-2.293c-1.303 0-1.505.821-1.832 1.916-.034.104-.102.155-.207.155-.236 0-.391-.07-.391-.17 0-.292.205-1.883.205-3.237 0-.067.24-.067.478-.067.549.737.72.737 1.455.737h6.368c1.196 0 1.538-.36 1.967-.891.118 0 .514 0 .514.154 0 .138-.343 1.54-.377 2.773 0 .187-.05.546-.137.546-.153 0-.549-.083-.549-.17l-.067-.857c-.069-.871-.478-.889-1.181-.889h-2.361v9.583zm7.406-8.505c0-1.11-.838-1.232-1.83-1.232-.07 0-.07-.087-.07-.154v-.188c0-.154.29-.17.892-.17.684 0 1.454.084 2.172.084.685 0 1.37-.084 2.055-.084h3.61c.136 0 .154.153.154.341v2.088c0 .069-.033.138-.121.138-.134 0-.41.015-.428-.188l-.05-.532c-.104-1.096-.854-1.284-1.815-1.284h-1.762c-.958 0-1.267.206-1.267 1.505v3.1c0 .05.104.137.137.137l2.02-.068c1.026-.036 1.317-.36 1.575-1.269.035-.102.085-.137.272-.137.12 0 .205.02.205.104 0 .36-.1 1.147-.1 1.71 0 .926.1 1.422.1 1.713 0 .103-.17.206-.272.206-.137 0-.256-.052-.292-.225-.083-.459-.083-.785-.171-1.024-.086-.257-.29-.377-.801-.395l-2.433-.05c-.24 0-.24.084-.24.203v4.076c0 1.23.908 1.265 2.088 1.265h.923c.908 0 1.542-.018 1.97-.275.38-.22.907-1.264 1.096-1.693.223 0 .513.051.513.17 0 .053-.05.188-.085.275l-.48 1.728c-.137.464-.223.464-.445.464-1.848 0-3.664-.088-6.146-.088-.562 0-2 .088-2.874.088-.05 0-.104-.172-.104-.276 0-.137.037-.29.104-.29 1.489-.069 1.9-.223 1.9-1.798V6.45zm12.818 7.17c0 2.5.053 2.518 1.73 2.603l.082.12v.324c0 .102-.255.122-.409.122-.24 0-1.385-.088-2.086-.088-.823 0-1.66.088-2.55.088-.068-.036-.087-.139-.087-.308.019-.223.051-.258.55-.258 1.18 0 1.23-.256 1.23-1.558v-8.18c0-.976-.29-1.216-1.729-1.216l-.05-.084-.034-.276c.016-.187.17-.203.274-.203.462 0 1.009.084 2.171.084.857 0 1.883-.084 2.569-.084l.084.12v.305l-.067.104-.461.034c-.686.051-1.217.12-1.217.91v7.442zm8.904 1.335c0 1.268.857 1.268 1.919 1.268l.1.085v.274c0 .207-.086.207-.358.207-.342 0-1.18-.088-2.376-.088-.944 0-2.414.088-2.828.088-.032-.122-.067-.207-.067-.308 0-.053.017-.156.067-.19l.173-.068h.205c1.557 0 1.625-.532 1.625-1.951V6.158l-.052-.787h-2.291c-1.303 0-1.505.821-1.83 1.916-.036.104-.105.155-.208.155-.238 0-.395-.07-.395-.17 0-.292.208-1.883.208-3.237 0-.067.24-.067.477-.067.55.737.719.737 1.457.737h6.366c1.198 0 1.539-.36 1.97-.891.118 0 .512 0 .512.154 0 .138-.341 1.54-.379 2.773 0 .187-.048.546-.133.546-.155 0-.55-.083-.55-.17l-.068-.857c-.068-.871-.48-.889-1.183-.889h-2.36v9.583zM43.4 30.571c-.186-.461-.872-.581-1.35-.581l-.104-.084v-.446l.19-.034c.715 0 1.759.085 2.138.085.787 0 1.555-.085 2.344-.085l.054.05-.054.48-.804.068c-.273.017-.58.12-.58.376 0 .137.085.36.152.514l1.968 5.135 1.114 2.55c.117.256.137.307.187.307.036 0 .087-.07.155-.274l2.447-6.486c.273-.737.478-1.369.463-1.575-.018-.289-.104-.443-.6-.495l-.89-.086-.102-.051v-.532c.667 0 1.334.104 2.001.104.53 0 1.661-.104 1.78-.104l.136.069v.395l-.153.119-.53.034c-.343.017-.479.19-.72.789-1.625 3.918-2.017 5.15-3.319 8.454l-.875 2.223c-.083.242-.118.257-.24.257-.151 0-.187-.05-.22-.12L43.4 30.571zm15.782 5.479-1.9-4.895h-.034l-1.624 4.895h3.558zm-3.781.666-.754 2.43c-.137.444-.205.84-.205 1.113 0 .564.805.685 1.267.685.154 0 .187.102.187.324 0 .171-.015.241-.134.241-.394 0-1.646-.088-2.109-.088-.459 0-1.177.088-1.69.088-.344 0-.344-.053-.344-.276v-.187c0-.086.154-.121.563-.154.89-.086 1.012-.257 1.338-1.198l3.385-9.858c.343-.29.703-.684 1.132-.823l4.295 10.835c.291.718.597 1.077 1.593 1.077.187 0 .22.208.22.395 0 .19-.12.19-.326.19-.272 0-1.368-.089-2.035-.089-.685 0-1.37.035-2.053.088-.255 0-.276-.053-.276-.294 0-.187.104-.271.345-.271.257 0 1.094-.052 1.094-.464 0-.135-.068-.41-.308-1.008l-1.095-2.756h-4.09zm10.86-5.185c0-.343-.022-.428-.089-.565-.152-.293-.908-.906-1.196-.925l-.91-.052c-.066 0-.087-.17-.087-.306 0-.087 0-.223.088-.223.53 0 .942-.034 1.37-.034.785 0 2.037.067 2.342.103l5.188 6.262a39.529 39.529 0 0 0 2.788 3.082h.069v-7.532c0-1.127-.41-1.3-.958-1.317l-.736-.035c-.068 0-.104-.17-.104-.288 0-.105.055-.275.157-.275.375 0 1.264.085 2.104.085.771 0 1.59-.085 2.072-.085.087 0 .102.067.102.138v.323c0 .086-.033.102-.152.102h-.448c-1.18 0-1.18.601-1.18 2.055v9.909h-.413l-9.24-10.559v7.856c0 1.47.203 1.642 1.678 1.694.07 0 .118.153.118.29 0 .137-.016.275-.066.275-.329 0-1.421-.087-2.141-.087-.837 0-1.214.087-2.003.087-.101 0-.121-.121-.121-.343 0-.155.02-.222.222-.222.722 0 1.545-.17 1.545-1.044v-8.369zm26.588 2.72-2.533-6.534h-.048l-2.17 6.534h4.751zm-5.05.89-1.005 3.243c-.182.595-.27 1.12-.27 1.486 0 .754 1.07.913 1.691.913.203 0 .25.137.25.432 0 .232-.025.322-.184.322-.524 0-2.192-.115-2.812-.115-.612 0-1.574.115-2.26.115-.457 0-.457-.068-.457-.365v-.252c0-.114.205-.16.755-.206 1.19-.113 1.35-.343 1.785-1.599l4.52-13.155c.456-.388.933-.915 1.505-1.097l5.733 14.459c.39.958.802 1.439 2.124 1.439.253 0 .296.273.296.525 0 .25-.157.25-.43.25-.368 0-1.827-.114-2.722-.114-.91 0-1.826.047-2.738.115-.341 0-.367-.068-.367-.39 0-.25.137-.364.46-.364.344 0 1.462-.069 1.462-.617 0-.18-.091-.549-.415-1.347l-1.461-3.678h-5.46zm23.97-5.714c.53 0 1.076.05 1.624.05.43 0 .873-.05 1.301-.05.257 0 .308.066.308.12v.272c0 .12-.051.206-.122.206-.119 0-.305-.035-.513-.035-.993 0-.993.496-.993 1.61 0 .975.19 7.375.19 8.317 0 .478.24 1.027.976 1.027.684 0 .767.034.767.189 0 .205-.1.376-.151.376-.909 0-1.625-.088-2.345-.088-.719 0-1.455.088-2.19.088-.122 0-.137-.069-.137-.17v-.173c0-.17.154-.222.941-.222.343 0 .65-.41.65-1.01 0-1.847-.067-5.836-.137-8.763-.069-.016-.051-.016-.051-.016-.958 1.969-2.207 4.826-2.788 6.35l-1.613 4.227c-.013.05-.066.101-.153.101-.082 0-.153-.086-.203-.324a7.694 7.694 0 0 0-.43-1.25l-3.234-7.874c-.121-.29-.222-.496-.288-.496-.073 0-.073.342-.073.532 0 1.352-.203 6.52-.203 7.36 0 .735 0 1.163 1.507 1.163.102 0 .119.085.119.29 0 .068-.017.275-.086.275-.24 0-1.077-.088-2.003-.088-.972 0-1.933.088-2.174.088-.05 0-.103-.053-.103-.139v-.255c0-.155.14-.17.344-.17 1.403 0 1.608-.43 1.608-1.92 0-.838.288-7.136.288-7.752 0-.907-.443-1.283-1.98-1.283-.053 0-.088-.084-.088-.188v-.222c0-.087.052-.153.14-.153.648 0 1.266.084 1.948.084.427 0 .873-.084 1.302-.084.121 0 .24.274.323.496l3.699 8.847h.08l3.942-9.343zm6.189 5.852c-1.237-.737-1.733-1.423-1.733-2.754 0-2.141 1.745-3.338 4.056-3.338.652 0 1.576.22 2.159.478l.12 2.14v.085c0 .086-.173.119-.414.119-.222 0-.254-.102-.272-.272-.12-1.147-.941-1.885-2.157-1.885-1.163 0-2.07.821-2.07 1.919 0 1.231.754 1.71 2.465 2.617 1.696.89 3.168 1.676 3.168 3.817 0 2.33-2.11 3.542-4.246 3.542-.702 0-1.867-.222-2.517-.496-.136-.068-.188-.29-.24-.667l-.206-1.61c0-.1.344-.1.446-.1.055 0 .103.032.136.152.395 1.3 1.287 2.053 2.655 2.053 1.199 0 2.343-1.044 2.343-2.206 0-1.113-.632-1.78-1.521-2.31l-2.172-1.284zm12.464 4.706c0 1.268.854 1.268 1.916 1.268l.104.084v.275c0 .206-.087.206-.362.206-.34 0-1.177-.087-2.377-.087-.942 0-2.415.087-2.823.087-.038-.121-.07-.206-.07-.308 0-.053.019-.155.07-.19l.172-.067h.205c1.557 0 1.625-.532 1.625-1.951v-8.113l-.05-.787h-2.294c-1.301 0-1.51.821-1.833 1.916-.032.104-.102.154-.204.154-.243 0-.392-.068-.392-.17 0-.291.203-1.882.203-3.236 0-.067.24-.067.48-.067.548.737.718.737 1.453.737h6.366c1.198 0 1.542-.36 1.97-.891.121 0 .512 0 .512.154 0 .137-.342 1.54-.376 2.773 0 .186-.053.546-.137.546-.155 0-.546-.084-.546-.17l-.068-.857c-.071-.871-.48-.889-1.183-.889h-2.361v9.583zm7.184-8.814c0-1.111-.84-1.233-1.831-1.233-.068 0-.068-.086-.068-.153v-.189c0-.154.29-.17.89-.17.682 0 1.454.085 2.174.085.683 0 1.368-.085 2.05-.085h3.615c.134 0 .152.153.152.342v2.088c0 .069-.035.137-.121.137-.136 0-.41.016-.427-.188l-.053-.532c-.102-1.095-.854-1.284-1.811-1.284h-1.765c-.957 0-1.265.206-1.265 1.506v3.099c0 .05.102.137.139.137l2.016-.068c1.026-.035 1.32-.359 1.575-1.268.034-.102.087-.138.277-.138.118 0 .2.02.2.104 0 .36-.1 1.148-.1 1.711 0 .926.1 1.422.1 1.712 0 .103-.168.206-.272.206-.136 0-.255-.052-.29-.224-.086-.46-.086-.785-.17-1.025-.088-.256-.294-.377-.807-.394l-2.429-.05c-.24 0-.24.083-.24.203v4.076c0 1.23.908 1.265 2.089 1.265h.925c.907 0 1.54-.018 1.967-.276.38-.22.907-1.264 1.094-1.692.225 0 .513.05.513.17 0 .052-.05.188-.083.274l-.48 1.729c-.137.463-.221.463-.445.463-1.849 0-3.663-.088-6.143-.088-.565 0-2.003.088-2.875.088-.053 0-.104-.171-.104-.275 0-.137.034-.29.104-.29 1.487-.07 1.899-.224 1.899-1.798v-7.975zm12.282 3.747c.223.018.43.036.65.036 1.367 0 3.08-.48 3.08-2.5 0-1.504-1.026-2.481-2.531-2.481-1.166 0-1.199.273-1.199.787v4.158zm-1.54-3.645c0-.854-.035-1.284-1.115-1.284h-.702c-.101 0-.119-.187-.119-.324 0-.086.053-.239.119-.239.993 0 2.007.05 2.998.05.788 0 1.558-.05 2.343-.05 1.747 0 3.459 1.164 3.459 2.96 0 1.556-1.421 2.6-2.756 2.807v.033c.668.154 1.37 1.404 1.54 1.677l1.883 2.877c.596.908.991 1.079 2.02 1.13l.101.101v.327c0 .152-.12.17-.187.17-.361 0-.892-.052-1.148-.052-.411 0-.821.053-1.23.053-.395 0-1.166-1.148-2.174-2.944-1.113-1.97-1.765-3.048-2.896-3.048-.134 0-.34 0-.596.035v4.194c0 .615 0 1.198.857 1.198.647 0 .94 0 .94.135 0 .325-.05.43-.31.43-.89 0-1.624-.087-2.361-.087-.29 0-2.187.087-2.43.087-.102 0-.136-.223-.136-.361 0-.153.067-.188.41-.204 1.18-.052 1.49-.223 1.49-1.405v-8.266zm13.82 7.673c0 1.883 1.934 1.883 2.684 1.883 2.344 0 4.842-1.933 4.842-5.512 0-3.047-1.64-4.553-2.824-5.236-.82-.36-1.899-.445-2.634-.445-1.401 0-2.069.101-2.069 1.199v8.11zm-1.545-7.634c0-.65-.134-1.317-.769-1.317-.205 0-.75.068-1.077.068-.07 0-.07-.256-.07-.341 0-.104 0-.155.293-.222 1.148-.24 3.883-.428 5.354-.428.944 0 1.833.085 2.673.306 2.325.635 4.5 2.705 4.5 5.854 0 4.244-3.545 6.162-6.796 6.162-1.626 0-2.483-.07-3.334-.07-.858 0-1.712.051-2.57.07-.067 0-.084-.154-.084-.275 0-.12.085-.29.154-.29.549-.07.99-.103 1.301-.309.256-.171.425-.446.425-.991v-8.217zm17.729 4.738-1.901-4.895h-.036l-1.62 4.895h3.557zm-3.785.666-.75 2.43c-.14.444-.205.84-.205 1.113 0 .564.803.685 1.267.685.151 0 .186.102.186.324 0 .171-.018.241-.136.241-.395 0-1.643-.088-2.106-.088-.462 0-1.18.088-1.694.088-.341 0-.341-.053-.341-.276v-.187c0-.086.155-.121.564-.154.89-.086 1.009-.257 1.334-1.198l3.387-9.858c.342-.29.704-.684 1.131-.823l4.295 10.835c.294.718.602 1.077 1.593 1.077.19 0 .222.208.222.395 0 .19-.118.19-.323.19-.273 0-1.37-.089-2.038-.089-.685 0-1.37.035-2.055.088-.255 0-.273-.053-.273-.294 0-.187.103-.271.341-.271.258 0 1.098-.052 1.098-.464 0-.135-.069-.41-.31-1.008l-1.093-2.756h-4.094zm20.631-7.29c.532 0 1.08.05 1.627.05.426 0 .874-.05 1.301-.05.256 0 .306.067.306.12v.273c0 .12-.05.206-.116.206-.121 0-.31-.035-.516-.035-.99 0-.99.496-.99 1.61 0 .975.186 7.375.186 8.317 0 .478.24 1.027.977 1.027.681 0 .77.034.77.189 0 .205-.103.376-.154.376-.91 0-1.626-.088-2.346-.088-.718 0-1.454.088-2.192.088-.119 0-.136-.069-.136-.17v-.173c0-.17.154-.222.94-.222.343 0 .65-.41.65-1.01 0-1.847-.065-5.836-.134-8.763-.068-.016-.053-.016-.053-.016-.959 1.969-2.208 4.826-2.788 6.35l-1.608 4.227a.16.16 0 0 1-.155.101c-.086 0-.153-.086-.206-.324a8.037 8.037 0 0 0-.428-1.25l-3.234-7.874c-.12-.29-.222-.496-.29-.496-.069 0-.069.342-.069.532 0 1.352-.208 6.52-.208 7.36 0 .735 0 1.163 1.508 1.163.103 0 .119.085.119.29 0 .068-.016.275-.087.275-.237 0-1.076-.088-2.001-.088-.977 0-1.935.088-2.172.088-.051 0-.101-.053-.101-.139v-.255c0-.155.134-.17.338-.17 1.405 0 1.61-.43 1.61-1.92 0-.838.291-7.136.291-7.752 0-.907-.441-1.283-1.987-1.283-.048 0-.085-.084-.085-.188v-.222c0-.087.053-.153.138-.153.65 0 1.266.084 1.955.084.425 0 .869-.084 1.297-.084.121 0 .24.274.327.496l3.695 8.847h.086l3.935-9.343zM0 34h34V0H0v34zM13.01 3.12 14.432 1.7 17 4.268l2.569-2.569L20.99 3.12l-2.568 2.57 2.568 2.568L19.57 9.68 17 7.111 14.432 9.68 13.01 8.258l2.568-2.568-2.568-2.57zm2.568 12.003-2.568-2.568 1.422-1.422L17 13.7l2.569-2.568 1.421 1.421-2.568 2.569 2.568 2.568-1.421 1.422L17 16.545l-2.568 2.568-1.422-1.422 2.568-2.568zm5.41 15.735-1.421 1.422-2.57-2.569-2.568 2.568-1.422-1.42 2.569-2.569-2.569-2.569L14.43 24.3l2.569 2.568 2.568-2.568 1.422 1.42-2.569 2.57 2.569 2.568zm.994-7.315.004-3.096-1.395 1.31s-.812.834-2.652 1.306c-1.838.472-3.233.387-4.07.218-.835-.167-1.587-.39-2.061-.615-.474-.223-1.31-.643-2.061-1.815-.445-.692-.445-2.426-.445-2.426l.034-3.233-.245-5.466s.828.037 1.393.039c.695.003 1.295-.152 1.311-.063.027.17.046 7.613.046 7.613s.082 1.588.472 2.397c.684 1.42 3.734 1.537 3.734 1.537s.474.057 1.534-.026c1.057-.081 3.124-.386 3.792-1.64 0 0 .475-.529.646-3.538.18-3.153-.243-6.273-.243-6.273l2.956-.136s-.2 2.229-.205 6.41c-.004 4.183.383 6.636.383 6.636l-2.928.861z"/></symbol>
<symbol id="logo-uva-small" viewBox="0 0 42 65" preserveAspectRatio="xMinYMin"><title>logo-UvA-small </title><path d="M7.203 48.766c0-1.244-.757-1.244-1.623-1.244l-.08-.065v-.266c0-.175.11-.191.284-.191.41 0 1.42.08 2.16.08.788 0 1.593-.08 2.381-.08l.047.049v.408l-.078.065h-.19c-1.025 0-1.482.11-1.482 1.292v4.574c0 2.27.441 4.05 3.154 4.05 2.822 0 3.736-1.354 3.736-4.02V49.32c0-1.797 0-1.672-1.387-1.797l-.063-.126v-.3L14.11 47c.282 0 .598.08 1.781.08.662 0 1.498-.08 2.003-.08l.063.096v.33l-.095.096c-1.15 0-1.56.063-1.56.85v5.63c0 2.885-1.688 4.351-4.557 4.351-2.287 0-4.542-.804-4.542-3.436v-6.15zm11.346 1.81c-.129-.318-.602-.401-.932-.401l-.072-.058v-.308l.131-.023c.494 0 1.215.058 1.477.058.543 0 1.073-.058 1.618-.058l.037.034-.037.331-.555.047c-.189.012-.401.083-.401.26 0 .095.059.248.105.355l1.358 3.545.77 1.76c.08.177.094.212.13.212.024 0 .059-.048.106-.189l1.689-4.477c.189-.51.33-.946.32-1.088-.013-.2-.072-.306-.414-.341l-.614-.06-.071-.035v-.367c.46 0 .92.071 1.381.071.366 0 1.147-.071 1.23-.071l.093.047v.273l-.106.082-.365.023c-.238.012-.331.131-.498.545-1.121 2.705-1.392 3.555-2.29 5.836l-.605 1.535c-.057.167-.082.177-.165.177-.105 0-.13-.035-.152-.082l-3.168-7.633zm13.522 2.405-1.749-4.51h-.033l-1.498 4.51h3.28zm-3.486.614-.694 2.239c-.126.41-.187.773-.187 1.026 0 .52.738.63 1.168.63.14 0 .172.095.172.299 0 .16-.017.221-.127.221-.361 0-1.513-.08-1.94-.08-.423 0-1.088.08-1.56.08-.317 0-.317-.046-.317-.252v-.173c0-.079.141-.11.522-.142.82-.078.932-.237 1.232-1.104l3.12-9.082c.315-.268.644-.632 1.039-.757l3.958 9.981c.269.662.553.994 1.466.994.175 0 .204.189.204.363 0 .172-.107.172-.297.172-.254 0-1.26-.08-1.879-.08-.627 0-1.26.034-1.89.08-.235 0-.253-.046-.253-.268 0-.173.094-.252.318-.252.237 0 1.009-.047 1.009-.426 0-.125-.063-.379-.287-.93l-1.009-2.539h-3.768zM0 42h42V0H0v42zM16.07 3.856 17.828 2.1 21 5.273 24.173 2.1l1.756 1.755-3.173 3.173 3.173 3.174-1.756 1.756L21 8.786l-3.173 3.172-1.756-1.756 3.173-3.174-3.173-3.172zm3.174 14.826-3.173-3.173 1.756-1.755L21 16.925l3.173-3.171 1.756 1.755-3.173 3.173 3.173 3.173-1.756 1.756L21 20.438l-3.173 3.172-1.756-1.755 3.173-3.173zm6.681 19.438-1.755 1.756-3.173-3.172-3.173 3.171-1.757-1.755 3.173-3.173-3.172-3.173 1.756-1.756 3.173 3.172 3.173-3.172 1.755 1.756-3.173 3.173 3.173 3.173zm1.228-9.037.006-3.824-1.723 1.617s-1.004 1.031-3.276 1.616c-2.272.581-3.995.476-5.027.268-1.033-.206-1.962-.482-2.547-.76-.586-.276-1.618-.794-2.546-2.243-.55-.854-.55-2.996-.55-2.996l.042-3.993-.302-6.753s1.023.045 1.72.048c.86.004 1.6-.188 1.62-.077.033.21.057 9.403.057 9.403s.1 1.962.583 2.961c.845 1.755 4.612 1.9 4.612 1.9s.585.07 1.895-.033c1.307-.1 3.859-.478 4.684-2.024 0 0 .587-.654.799-4.372.22-3.895-.301-7.75-.301-7.75l3.651-.167s-.247 2.753-.253 7.918c-.004 5.168.473 8.198.473 8.198l-3.617 1.063z"/></symbol>
<symbol id="logo-uva-mini" viewBox="0 0 84 84"><title>logo-uva-mini </title><path fill="#1d1d1b" d="M0 0h84v84H0z"/><path fill="#fff" d="m51.04 75.31-3.42 3.42-6.12-6.37-6.11 6.37-3.44-3.42 6.12-6.37-6.12-6.36 3.44-3.43 6.11 6.36 6.12-6.36 3.42 3.43-6.12 6.36 6.12 6.37zM31.95 7.27l3.44-3.42 6.11 6.36 6.12-6.36 3.42 3.42-6.12 6.36 6.12 6.36-3.42 3.44-6.12-6.37-6.11 6.37-3.44-3.44 6.12-6.36-6.12-6.36zM31.95 30.52l3.44-3.43 6.11 6.36 6.12-6.36 3.18 3.43-6.12 6.37 6.12 6.36-3.18 3.42-6.12-6.36-6.11 6.36-3.44-3.42 6.12-6.36-6.12-6.37z"/><path d="M26.33 23.92c1.71 0 3.17-.49 3.17-.25 0 .49.25 18.6.25 18.6S30 46.18 31 48.14c1.48 3.42 8.82 3.91 8.82 3.91a13.47 13.47 0 0 0 3.66 0c2.46-.24 7.35-1 9.06-3.91 0 0 1.23-1.22 1.47-8.57a92.14 92.14 0 0 0-.49-15.42l7.1-.24s-.49 5.38-.49 15.65A151.23 151.23 0 0 0 60.84 56l-7.35 1.72v-7.64L50.07 53a15.19 15.19 0 0 1-6.36 3.18 19.71 19.71 0 0 1-9.78.49A40.39 40.39 0 0 1 29 55.22a10.89 10.89 0 0 1-4.9-4.4c-1-1.72-1-5.88-1-5.88l.25-7.83-.25-13.46a24.7 24.7 0 0 0 3.23.27Z" fill="#fff"/></symbol>
</svg>